<?xml version="1.0" encoding="utf-8"?>
<!-- Generator: Adobe Illustrator 21.1.0, SVG Export Plug-In . SVG Version: 6.00 Build 0)  -->
<svg version="1.1" id="Layer_1" xmlns="http://www.w3.org/2000/svg" xmlns:xlink="http://www.w3.org/1999/xlink" x="0px" y="0px"
	 viewBox="0 0 750 1338" style="enable-background:new 0 0 750 1338;" xml:space="preserve">
<style type="text/css">
	.st0{fill:#ECA3FF;}
	.st1{fill:#FFFFFF;}
	.st2{fill:#DD00D7;}
	.st3{opacity:0.63;}
	.st4{fill:url(#SVGID_1_);}
	.st5{fill:#9B00DB;}
	.st6{fill:url(#SVGID_2_);}
	.st7{fill:url(#SVGID_3_);}
	.st8{fill:none;stroke:#42005C;stroke-miterlimit:10;}
	.st9{fill:#42005C;}
	.st10{fill:url(#SVGID_4_);}
	.st11{fill:url(#SVGID_5_);}
	.st12{fill:url(#SVGID_6_);}
	.st13{fill:url(#SVGID_7_);}
	.st14{fill:url(#SVGID_8_);}
	.st15{fill:url(#SVGID_9_);}
	.st16{fill:url(#SVGID_10_);}
	.st17{fill:url(#SVGID_11_);}
	.st18{fill:url(#SVGID_12_);}
</style>
<rect x="-20" y="-18" class="st0" width="798" height="1372"/>
<g>
	<g>
		<path class="st1" d="M269,544c-36.9,0-67-30.1-67-67s30.1-67,67-67s67,30.1,67,67S305.9,544,269,544z"/>
		<path class="st2" d="M269,415c34.2,0,62,27.8,62,62s-27.8,62-62,62s-62-27.8-62-62S234.8,415,269,415 M269,405
			c-39.8,0-72,32.2-72,72s32.2,72,72,72s72-32.2,72-72S308.8,405,269,405L269,405z"/>
	</g>
	<g>
		<path class="st1" d="M501,545c-36.9,0-67-30.1-67-67s30.1-67,67-67s67,30.1,67,67S537.9,545,501,545z"/>
		<path class="st2" d="M501,416c34.2,0,62,27.8,62,62s-27.8,62-62,62s-62-27.8-62-62S466.8,416,501,416 M501,406
			c-39.8,0-72,32.2-72,72s32.2,72,72,72s72-32.2,72-72S540.8,406,501,406L501,406z"/>
	</g>
	<g class="st3">
		<linearGradient id="SVGID_1_" gradientUnits="userSpaceOnUse" x1="274" y1="477.5" x2="483" y2="477.5">
			<stop  offset="0" style="stop-color:#FFFFFF"/>
			<stop  offset="1" style="stop-color:#3B007F"/>
		</linearGradient>
		<path class="st4" d="M378.5,582C320.9,582,274,535.1,274,477.5S320.9,373,378.5,373S483,419.9,483,477.5S436.1,582,378.5,582z"/>
		<path class="st5" d="M378.5,378c54.9,0,99.5,44.6,99.5,99.5S433.4,577,378.5,577S279,532.4,279,477.5S323.6,378,378.5,378
			 M378.5,368C318,368,269,417,269,477.5S318,587,378.5,587S488,538,488,477.5S439,368,378.5,368L378.5,368z"/>
	</g>
	<g>
		<linearGradient id="SVGID_2_" gradientUnits="userSpaceOnUse" x1="188.5728" y1="477" x2="205.4272" y2="477">
			<stop  offset="0" style="stop-color:#FFFFFF"/>
			<stop  offset="1" style="stop-color:#3B007F"/>
		</linearGradient>
		<polygon class="st6" points="196.7,481.2 195,485.2 195.4,480.9 192.6,484.2 194.3,480.2 190.6,482.5 193.4,479.2 189.2,480.2 
			192.9,478 188.6,477.7 192.8,476.7 188.8,475 193.1,475.4 189.8,472.6 193.8,474.3 191.5,470.6 194.8,473.4 193.8,469.2 
			196,472.9 196.3,468.6 197.3,472.8 199,468.8 198.6,473.1 201.4,469.8 199.7,473.8 203.4,471.5 200.6,474.8 204.8,473.8 
			201.1,476 205.4,476.3 201.2,477.3 205.2,479 200.9,478.6 204.2,481.4 200.2,479.7 202.5,483.4 199.2,480.6 200.2,484.8 
			198,481.1 197.7,485.4 		"/>
		<polygon class="st5" points="193.8,435.9 192.2,457 181.3,438.9 186.2,459.4 170.3,445.7 181.3,463.6 161.9,455.5 178,469.1 
			156.9,467.4 176.5,475.4 155.9,480.2 177,481.8 158.9,492.7 179.4,487.8 165.7,503.7 183.6,492.7 175.5,512.1 189.1,496 
			187.4,517.1 195.4,497.5 200.2,518.1 201.8,497 212.7,515.1 207.8,494.6 223.7,508.3 212.7,490.4 232.1,498.5 216,484.9 
			237.1,486.6 217.5,478.6 238.1,473.8 217,472.2 235.1,461.3 214.6,466.2 228.3,450.3 210.4,461.3 218.5,441.9 204.9,458 
			206.6,436.9 198.6,456.5 193.8,435.9 		"/>
	</g>
	<g>
		<linearGradient id="SVGID_3_" gradientUnits="userSpaceOnUse" x1="565.5728" y1="478" x2="582.4272" y2="478">
			<stop  offset="0" style="stop-color:#FFFFFF"/>
			<stop  offset="1" style="stop-color:#3B007F"/>
		</linearGradient>
		<polygon class="st7" points="573.7,482.2 572,486.2 572.4,481.9 569.6,485.2 571.3,481.2 567.6,483.5 570.4,480.2 566.2,481.2 
			569.9,479 565.6,478.7 569.8,477.7 565.8,476 570.1,476.4 566.8,473.6 570.8,475.3 568.5,471.6 571.8,474.4 570.8,470.2 
			573,473.9 573.3,469.6 574.3,473.8 576,469.8 575.6,474.1 578.4,470.8 576.7,474.8 580.4,472.5 577.6,475.8 581.8,474.8 
			578.1,477 582.4,477.3 578.2,478.3 582.2,480 577.9,479.6 581.2,482.4 577.2,480.7 579.5,484.4 576.2,481.6 577.2,485.8 
			575,482.1 574.7,486.4 		"/>
		<polygon class="st5" points="570.8,436.9 569.2,458 558.3,439.9 563.2,460.4 547.3,446.7 558.3,464.6 538.9,456.5 555,470.1 
			533.9,468.4 553.5,476.4 532.9,481.2 554,482.8 535.9,493.7 556.4,488.8 542.7,504.7 560.6,493.7 552.5,513.1 566.1,497 
			564.4,518.1 572.4,498.5 577.2,519.1 578.8,498 589.7,516.1 584.8,495.6 600.7,509.3 589.7,491.4 609.1,499.5 593,485.9 
			614.1,487.6 594.5,479.6 615.1,474.8 594,473.2 612.1,462.3 591.6,467.2 605.3,451.3 587.4,462.3 595.5,442.9 581.9,459 
			583.6,437.9 575.6,457.5 570.8,436.9 		"/>
	</g>
	<polygon class="st8" points="470.5,537.5 523.5,632 415.5,632 	"/>
	<polygon class="st8" points="290.5,542.5 343.5,631.5 235.5,631.5 	"/>
	<g>
		<g>
			<path class="st9" d="M245.7,445.1c-0.9,3,1.7,5.8,4.8,5.8c3.3,0,6-3.5,6.3-6.6c0.5-5.9-10.1-7.5-10.6-1.1
				c-0.2,2.8,2.1,5.7,4.9,5.8c2.8,0.1,4.6-2.4,4.2-5c-0.3-2.4-2.1-4.6-4.7-4.3c-2.5,0.3-3.8,2.8-3.6,5.1c0.3,2.6,2.2,4.7,4.9,4.5
				c2.8-0.2,4.8-3,4.9-5.8c0.2-6.9-10.5-7.5-12.6-1.5c-1.2,3.5,2.3,6.4,5.4,7c3.1,0.6,6.6-0.2,8.6-2.8c4.6-5.9-2.5-14.2-9-10.5
				c-7.1,4.1,0,15.8,6.6,10.1c2.5-2.2,3-6,0.3-8.2c-2.5-2-6.3-1.6-8.2,1.1c-1.1,1.6,1.5,3.1,2.6,1.5c0.9-1.3,3.3-1.1,4.2,0.2
				c1,1.7-0.9,3.9-2.7,3.9c-4.1,0-3.4-6.7,0.9-6.5c5.2,0.2,4.7,7.2,0.1,8.2c-1.7,0.4-3.8,0.1-5.1-1.1c-2.4-2.1,0.8-4.2,2.9-4.1
				c5.4,0.1,2.2,6.9-0.1,5.2c-0.7-0.5-1-2.2-0.4-3c1.1-1.3,2.1,0.6,2.1,1.6c-0.1,2.2-2.5,1.2-3.1-0.3c-0.6-1.8,1.1-2.7,2.6-2.2
				c1.9,0.6,2,1.9,1.3,3.5c-0.4,0.9-1.2,2-2.3,2.2c-1.2,0.2-2.7-0.6-2.3-2C249.1,444,246.2,443.2,245.7,445.1L245.7,445.1z"/>
		</g>
	</g>
	<g>
		<g>
			<path class="st9" d="M517.1,434.2c0.1,5.3,7.3,7.3,10.2,2.8c3.2-4.9-1.1-10.5-6.4-10.8c-2.5-0.1-5.3,0.8-6.2,3.3
				c-0.8,2-0.3,4.5,1.3,6c3.8,3.6,10.9-1.8,7.9-6.2c-1.3-1.9-4.4-2-5.6,0c-1.6,2.6,1.2,5.3,3.8,4.9c1.9-0.3,1.1-3.2-0.8-2.9
				c-0.6,0.1-0.3-0.9,0.1-0.2c0.3,0.6,0,1.2-0.3,1.7c-0.8,1.1-2.3,1.5-3.2,0.4c-1.9-2.5,1.3-4.1,3.4-3.8c2.5,0.4,4.8,2.6,3.9,5.3
				c-0.9,2.5-5,2.8-5-0.3C520,432.3,517,432.3,517.1,434.2L517.1,434.2z"/>
		</g>
	</g>
	<g>
		<g>
			<path class="st9" d="M525.6,474.6c2.2,2.5,5.4,4.4,8.8,3.8c3-0.6,5.6-3.4,5.3-6.6c-0.3-2.5-2.6-4.2-5-4.1c-1.1,0-2.2,0.4-3,1.1
				c-0.5,0.4-0.8,0.9-1,1.5c-0.1,0.4-0.1,0.8-0.3,1.1c0,0.2,0,0.3-0.1,0.5c-0.2,0.5-0.8,0.7-1.6,0.4c0.1,1.9,3.1,1.9,3,0
				c-0.1-2.3-3.2-3.3-4.6-1.4c-1.6,2.2,1.4,4.4,3.5,4.1c1.1-0.2,2-0.8,2.4-1.8c0.4-0.8,0.2-1.9,1-2.4c0.5-0.3,1.3-0.1,1.8,0.1
				c2.4,1.2-0.1,4.1-1.9,4.5c-2.4,0.5-4.7-1.3-6.2-3C526.4,471.1,524.3,473.2,525.6,474.6L525.6,474.6z"/>
		</g>
	</g>
	<g>
		<g>
			<path class="st9" d="M501.7,503.8c-1.5-3-5.7-4.1-8.5-2.1c-0.6,0.4-0.9,1-0.7,1.7c0.6,2.2,1.3,4.6,3.2,6c1.7,1.3,3.9,1.3,5.6,0
				c1.5-1.1,2.3-3.3,1-4.8c-1.4-1.8-4-1.3-5.2,0.4c-1.1,1.6,1.5,3.1,2.6,1.5c0.2-0.3,0.3,0.1,0,0.4c-0.4,0.4-1.2,0.5-1.8,0.3
				c-1.6-0.7-2.1-3.2-2.5-4.7c-0.2,0.6-0.5,1.1-0.7,1.7c1.5-1.1,3.5-0.7,4.4,1C500,507.1,502.6,505.5,501.7,503.8L501.7,503.8z"/>
		</g>
	</g>
	<g>
		<g>
			<path class="st9" d="M499.5,456.4c3.2-0.2,4.3-4.3,1.7-6.2c-0.4-0.3-1.1-0.3-1.5,0c-2.9,1.8-3.9,5.3-2.5,8.4
				c0.2,0.4,0.8,0.8,1.3,0.7c4.8-0.5,8.6-4.5,8.4-9.4c0-0.6-0.4-1.3-1.1-1.4c-5.1-1.2-9.8,5.6-6,9.7c3.5,3.7,10.4,0.5,10.2-4.4
				c-0.1-1.9-3.1-1.9-3,0c0.1,2.1-2.9,3.9-4.8,2.6c-2.2-1.6,0.4-5.5,2.8-4.9c-0.4-0.5-0.7-1-1.1-1.4c0.1,3.2-2.1,6.1-5.4,6.4
				c0.4,0.2,0.9,0.5,1.3,0.7c-0.7-1.6,0-3.4,1.4-4.3c-0.5,0-1,0-1.5,0c0,0.2,0,0.4-0.2,0.6C497.6,453.6,497.5,456.6,499.5,456.4
				L499.5,456.4z"/>
		</g>
	</g>
	<g>
		<g>
			<path class="st9" d="M529.4,513.1c3-1.2,3.7-5.3,1.2-7.5c-3-2.5-7.6,0.6-7.5,4.2c0.1,4,4.9,6.1,8.2,4.4c3-1.6,5.3-6.7,1.2-8.3
				c-3.3-1.3-7.5,1.1-7.4,4.8c0.1,1.9,3.1,1.9,3,0c0-1.4,1.5-2.3,2.8-2.1c2.3,0.3-0.7,3.2-1.9,3.3c-2,0.2-4.1-2.3-2-3.7
				c1.9-1.3,3,1.6,1.6,2.1C526.8,511,527.6,513.9,529.4,513.1L529.4,513.1z"/>
		</g>
	</g>
	<g>
		<g>
			<path class="st9" d="M482.6,428.1c1.3-0.3,2.5-0.5,3.8-0.8c-0.6-0.5-1.3-1-1.9-1.4c0-0.3,0.4-0.2-0.2-0.2c-0.7,0-0.2-0.3-0.3,0.2
				c-0.7,0.3-1.5,0.6-2.2,0.9c1,0.4,1.3,1.2,1.2,2.2c0.6-0.5,1.3-1,1.9-1.4c-1.6-0.5-1.6-2.8-0.5-3.7c-0.8-0.1-1.6-0.2-2.4-0.3
				c1.3,1.6,2.1,3.5,2.3,5.6c0.2,1.9,3.2,1.9,3,0c-0.2-2.6-1.1-5-2.7-7.1c-0.6-0.8-1.5-1-2.4-0.3c-3,2.5-1.7,7.6,1.8,8.7
				c1,0.3,1.8-0.5,1.9-1.4c0.2-2-0.9-4-2.7-4.8c-0.8-0.4-2-0.1-2.2,0.9c-1,4.2,6.4,5,6.3,0.8c0-1-0.9-1.6-1.9-1.4
				c-1.3,0.3-2.5,0.5-3.8,0.8C479.9,425.6,480.7,428.5,482.6,428.1L482.6,428.1z"/>
		</g>
	</g>
	<g>
		<g>
			<path class="st9" d="M483,429.2c4.2,0.8,8.4-3.4,6.9-7.7c-0.3-0.8-1-1.3-1.8-1c-2.8,0.7-4.5,3.8-3.6,6.6c0.2,0.6,0.8,1.2,1.4,1.1
				c2.4-0.2,4.6-1.5,5.6-3.8c0.3-0.6,0.3-1.3-0.2-1.8c-2.6-2.6-5.6,3.5-1.6,3.8c1.9,0.1,1.9-2.9,0-3c2.2,0.2,0.7,2.5-0.5,1.3
				c-0.1-0.6-0.2-1.2-0.2-1.8c-0.6,1.3-1.6,2.2-3,2.3c0.5,0.4,1,0.7,1.4,1.1c-0.4-1.2,0.2-2.5,1.5-2.9c-0.6-0.3-1.2-0.7-1.8-1
				c0.7,1.9-1.1,4.4-3.2,4C482,425.9,481.1,428.8,483,429.2L483,429.2z"/>
		</g>
	</g>
	<g>
		<g>
			<path class="st9" d="M496.3,530.4c-0.9-1.2-0.4-4.4,1.6-4c1.3,0.3,1.9,2.7,0.7,3.4c0.5,0,1,0,1.5,0c-1.6-0.7-2.3-3-1-4.3
				c-0.7,0-1.4,0-2.1,0c1.7,1.5,1.6,4.4-0.3,5.7c-1.6,1-0.1,3.6,1.5,2.6c3.5-2.2,4.1-7.5,1-10.4c-0.6-0.5-1.5-0.6-2.1,0
				c-2.2,2.4-2,6.3,0.6,8.4c3,2.5,5.2-1.7,4.6-4.4c-0.6-2.9-3.6-4.9-6.4-3.4c-2.8,1.4-4,5.5-2,8C494.9,533.5,497.5,532,496.3,530.4
				L496.3,530.4z"/>
		</g>
	</g>
	<g>
		<g>
			<path class="st9" d="M509.6,476.6c-1.3,1.9-0.1,4.9,2.3,5.3c-0.4-0.5-0.7-1-1.1-1.4c0,0.7-1.9,0.9-2.1,0.4c-0.5-0.8,1.6-1.7,2-1
				c0.7,1.2,2.9,0.8,2.8-0.8c-0.2-3.5-5.9-2.5-5,0.7c0.5,1.9,3.4,1.1,2.9-0.8c0,0.4-0.1,0.6-0.4,0.8c-0.1,0-0.1,0,0.1,0
				c-0.3,0-0.6-0.3-0.7-0.7c0.9-0.3,1.9-0.5,2.8-0.8c-2.3-3.6-8.8-0.9-7.5,3.3c1.3,4,7.8,2.8,8-1.2c0-0.6-0.5-1.4-1.1-1.4
				c-0.5-0.1-0.8-0.4-0.5-0.9C513.2,476.5,510.6,475,509.6,476.6L509.6,476.6z"/>
		</g>
	</g>
	<g>
		<g>
			<path class="st9" d="M533.7,450.4c-1.6,2.9,1,6.2,4.1,6.3c3.5,0.1,4.9-3.8,3.7-6.7c-1.5-3.4-5.5-4.2-8.4-2.1
				c-1.4,1-2.7,2.7-2.9,4.5c-0.1,1.4,0.8,2.9,1.9,3.7c2.5,1.8,6.6,1.5,8.1-1.5c0.8-1.7-1.7-3.2-2.6-1.5c-0.6,1.3-2.3,1.4-3.5,0.7
				c-2.1-1.2,0.2-3.6,1.8-4c1.7-0.5,3.7,1.3,3,3.1c-0.7,1.6-3.3,0.1-2.6-1.1C537.2,450.2,534.6,448.7,533.7,450.4L533.7,450.4z"/>
		</g>
	</g>
	<g>
		<g>
			<path class="st9" d="M521.9,534.1c0.2-2.9,4-4.3,6.2-2.8c0-0.9,0-1.7,0-2.6c-1.2,0.5-2.3,1.1-3.5,1.6c-1.8,0.8-0.2,3.4,1.5,2.6
				c1.2-0.5,2.3-1.1,3.5-1.6c1.1-0.5,0.8-2,0-2.6c-4.3-2.9-10.3,0.4-10.7,5.4C518.7,536,521.7,536,521.9,534.1L521.9,534.1z"/>
		</g>
	</g>
	<g>
		<g>
			<path class="st9" d="M461.1,457.1c-0.6,2.8-0.3,5.6,1,8.2c0.3,0.7,1.4,1,2.1,0.5c2.5-1.8,6.8-5.9,3.5-9c-2-1.8-6.4-1.6-6.2,1.8
				c0.1,1.9,3.1,1.9,3,0c0-0.6,0,0-0.1,0c0.3,0,0.2-0.1,0.5,0c0.3,0.1,0.8,0.2,1,0.5c0.7,1.5-2.2,3.4-3.1,4c0.7,0.2,1.4,0.4,2.1,0.5
				c-0.9-1.9-1.1-3.9-0.7-5.9C464.4,456.1,461.5,455.3,461.1,457.1L461.1,457.1z"/>
		</g>
	</g>
	<g>
		<g>
			<path class="st9" d="M463.2,495.4c-4.5,0.8-3.4,7.5,1.1,6.7c2.1-0.4,3.1-3.5,3.6-5.3c0.8-2.7,0.9-5.4,0.5-8.2
				c-0.1-0.6-0.9-1.2-1.4-1.1c-4,0.5-6.6,5.2-4.2,8.7c1.1,1.6,3.7,0.1,2.6-1.5c-1-1.4-0.3-4,1.6-4.2c-0.5-0.4-1-0.7-1.4-1.1
				c0.3,2,0.2,4-0.3,5.9c-0.2,0.8-0.5,1.7-0.9,2.4c-0.2,0.5-0.4,0.9-0.7,1.3c-0.4,0.3-0.3,0,0.3-0.8
				C465.9,497.9,465.1,495,463.2,495.4L463.2,495.4z"/>
		</g>
	</g>
	<g>
		<g>
			<path class="st9" d="M449.6,479.9c3.1-2,4.2-5.9,2.7-9.3c-0.4-0.9-1.8-1-2.4-0.3c-1.8,2-2.7,4.4-2.7,7c0,1.9,3,1.9,3,0
				c0-1.9,0.5-3.5,1.8-4.9c-0.8-0.1-1.6-0.2-2.4-0.3c0.8,1.9,0,4.1-1.6,5.2C446.5,478.3,448,480.9,449.6,479.9L449.6,479.9z"/>
		</g>
	</g>
	<g>
		<g>
			<path class="st9" d="M476,529.3c2.4,0.2,4.4-0.9,5.8-2.8c-0.9-0.5-1.7-1-2.6-1.5c-1.1,1.9-1.4,4-0.9,6.2c0.2,0.9,1.4,1.4,2.2,0.9
				c1.3-0.8,2.6-1.5,4-2.3c1.7-1,0.2-3.6-1.5-2.6c-1.3,0.8-2.6,1.5-4,2.3c0.7,0.3,1.5,0.6,2.2,0.9c-0.3-1.4-0.1-2.6,0.6-3.8
				c1-1.7-1.4-3-2.6-1.5c-0.8,1-2,1.4-3.2,1.3C474.1,526.2,474.1,529.2,476,529.3L476,529.3z"/>
		</g>
	</g>
	<g>
		<g>
			<path class="st9" d="M462.9,518.1c0,0.4-0.3,0.6-0.6,0.8c-0.2,0-0.2,0-0.1,0c-0.2,0-0.2,0-0.1,0c0.1,0,0.1,0,0.2,0.1
				c-0.2-0.1-0.2-0.1,0,0c-0.2-0.2-0.3-0.2-0.3-0.5c0.5-0.5,1-1,1.5-1.5c0.1,0-0.1,0-0.1,0c0.1,0.1-0.1,0-0.1-0.1
				c0,0-0.2-0.2-0.2-0.2c-0.1-0.2-0.1-0.2-0.1-0.3c0,0,0-0.2,0-0.2c-0.2,0.2-0.4,0.4-0.5,0.5c0.5-0.3,1-0.4,1.4,0
				c1.4,1.3,3.6-0.8,2.1-2.1c-0.9-0.8-2-1.2-3.1-1.1c-1.2,0.1-2.5,0.6-2.8,1.9c-0.6,2.3,1.2,4.4,3.4,4.6c0.8,0,1.6-0.7,1.5-1.5
				c-0.1-1.4-1.1-2.3-2.4-2.5c-1.4-0.2-2.7,0.7-2.6,2.2C459.9,520,462.9,520.1,462.9,518.1L462.9,518.1z"/>
		</g>
	</g>
	<g>
		<g>
			<path class="st9" d="M237.9,463.6c2.8,2.2,7.1-0.1,7-3.7c-0.2-3.7-4.8-4.6-7.4-2.8c-3.3,2.2-2.1,7,0.9,8.8
				c3.9,2.4,8.3-0.6,9.7-4.5c0.2-0.5,0-1.1-0.4-1.5c-2.9-2.5-7.3-1.3-8.7,2.3c-0.7,1.8,2.2,2.6,2.9,0.8c0.5-1.4,2.5-1.9,3.7-0.9
				c-0.1-0.5-0.3-1-0.4-1.5c-0.6,1.7-2.2,3.2-4,3.1c-1.5-0.1-3.2-1.8-2.6-3.3c0.4-1,1.9-1.6,2.8-1c1.3,0.8-0.5,2.8-1.3,2.1
				C238.5,460.3,236.4,462.4,237.9,463.6L237.9,463.6z"/>
		</g>
	</g>
	<g>
		<g>
			<path class="st9" d="M310.1,452.7c2.1,0.7,4.1,0.2,5.8-1.2c0.6-0.5,0.5-1.6,0-2.1c-1.9-1.9-4.2-3.7-7-3.8c-2.2,0-4.2,1.3-5.1,3.4
				c-2,4.7,4.5,7.8,7.1,3.5c1-1.6-1.6-3.2-2.6-1.5c-0.5,0.8-1.9,0.8-1.9-0.3c0-0.7,0.7-1.5,1.3-1.8c2.2-1.1,4.6,1.2,6,2.6
				c0-0.7,0-1.4,0-2.1c-0.9,0.7-1.9,0.7-2.9,0.4C309.1,449.2,308.3,452.1,310.1,452.7L310.1,452.7z"/>
		</g>
	</g>
	<g>
		<g>
			<path class="st9" d="M311.4,480.2c1.9,2.1,5.5,1.5,7.1-0.7c1.7-2.4,0.2-5.4-2.6-5.8c-2.3-0.3-5.5,1.2-5,3.9
				c0.2,1.5,2.3,2.7,3.6,3.2c1.6,0.6,3.4,0.7,5,0.1c1.1-0.4,1.6-2.1,0.4-2.7c-2.3-1.1-4.6-1.5-7.1-1c-1.9,0.3-1.1,3.2,0.8,2.9
				c1.7-0.3,3.3,0,4.8,0.7c0.1-0.9,0.2-1.8,0.4-2.7c-0.8,0.3-1.5,0.4-2.4,0.2c-0.9-0.2-1.4-0.7-2.1-1.1c-0.4-0.2-0.1-0.2-0.2,0
				c0.1-0.1,0.1-0.2,0.2-0.2c0.4-0.1,0.7-0.3,1.1-0.3c2.3,0.1-0.3,3.1-1.7,1.5C312.2,476.7,310.1,478.8,311.4,480.2L311.4,480.2z"/>
		</g>
	</g>
	<g>
		<g>
			<path class="st9" d="M302.3,507.2c-0.2-0.4,1-0.9,1.3-0.8c1,0.2,0.5,1.6,0.1,2.1c-0.7,0.9-2.1,1.3-3,0.5
				c-0.3-0.2-0.5-0.5-0.3-0.8c0.3-0.4,0.7-0.1,0.4-0.4c1.1,1.6,3.7,0.1,2.6-1.5c-2-2.8-6.6-0.8-6.1,2.6c0.6,3.8,5.6,4.5,8.1,2.2
				c2.3-2.1,2.6-6.9-1.2-7.6c-2.9-0.6-6.1,2.4-4.5,5.3C300.6,510.4,303.2,508.9,302.3,507.2L302.3,507.2z"/>
		</g>
	</g>
	<g>
		<g>
			<path class="st9" d="M289.1,476c1.4,0.2,2.1,2.7,0.9,3.6c-1.6,1.1-3.2-2.1-1.9-3.2c-0.7,0-1.4,0-2.1,0c0.6,0.6,0.8,1.3,0.8,2.1
				c0,1.9,3,1.9,3,0c0-1.6-0.6-3-1.7-4.2c-0.6-0.6-1.5-0.5-2.1,0c-3.6,3.3,0.6,10.3,5.1,8.2c3.8-1.8,3.1-8.6-1.2-9.3
				C288.1,472.8,287.2,475.7,289.1,476L289.1,476z"/>
		</g>
	</g>
	<g>
		<g>
			<path class="st9" d="M266.8,527.4c-0.3,0.1-0.3,0.2,0,0.2c0.2,0,0.3,0.1,0.4,0.2c-0.1,0.2-0.4,0.4-0.6,0.5
				c-1.1,0.6-2.2-0.5-2.7-1.3c-1.4-2.2-1.5-4.9-2.8-7.1c-0.3,0.7-0.6,1.5-0.9,2.2c1.9-0.3,3.2,1.6,3,3.3c-0.2,1.9,2.8,1.9,3,0
				c0.5-3.8-3.2-6.8-6.8-6.2c-1,0.2-1.4,1.5-0.9,2.2c1.7,2.6,1.6,6.1,3.9,8.4c1.8,1.8,4.7,2.2,6.6,0.5c4.3-3.8-3.5-8.5-5-3.7
				C263.4,528.4,266.3,529.2,266.8,527.4L266.8,527.4z"/>
		</g>
	</g>
	<g>
		<g>
			<path class="st9" d="M240.2,517c0.3,0,0-0.2-0.1-0.2C240,516.8,240.1,516.9,240.2,517c-0.1,0-0.1,0.3-0.1,0.3
				c0.1,0.2-0.2,0.1,0,0.1c0,0,0.2-0.1,0.2-0.1c0.1-0.3,0.1,0.2,0-0.1c0-0.1-0.2-0.2-0.3-0.3c-0.2-0.4-0.2-0.8,0.1-1.1
				c-0.4,0.1-0.7,0.3-1.1,0.4c0.3,0,0.7,0.2,0.7,0.6c0.1-0.3,0.1-0.5,0.2-0.8c-0.5,0.7-2.3-0.5-1.9-1.2c0.2-0.3,0.8-0.3,1.3-0.2
				c0.6,0.2,0.9,0.5,0.8,0.9c-0.1,1.9,2.9,1.9,3,0c0.2-3.2-3.8-4.9-6.3-3.6c-1.4,0.7-2.2,2.4-1.7,3.9c0.4,1.5,1.7,2.6,3.2,3
				c1.5,0.4,3.3,0.1,4.2-1.3c1.2-1.8-1-4.1-2.7-4.5c-2.2-0.4-3.1,2.1-2.8,3.9c0.3,1.6,1.6,3.1,3.4,3.1c3.8,0.1,3.6-6.7-0.1-6.2
				c-0.8,0.1-1.5,0.6-1.5,1.5C238.7,516.2,239.4,517.1,240.2,517L240.2,517z"/>
		</g>
	</g>
	<g>
		<g>
			<path class="st9" d="M256.5,495.4c-0.4-1.3-0.1-2.6,0.8-3.7c-0.6,0.1-1.2,0.2-1.8,0.2c3.2,1.6,1.9,6.5-1.8,5.8
				c-1.6-0.3-2.7-1.9-2.1-3.5c0.6-1.3,2.7-1.1,2.6,0.4c-0.1,1.9,2.9,1.9,3,0c0.2-3.5-4.2-5.5-6.9-3.5c-2.9,2.1-2.3,6.8,0.6,8.7
				c2.8,1.9,7.2,1.1,8.8-2c1.6-2.9,0.3-6.9-2.7-8.4c-0.6-0.3-1.4-0.3-1.8,0.2c-1.6,1.8-2.3,4.2-1.6,6.6
				C254.2,498,257.1,497.2,256.5,495.4L256.5,495.4z"/>
		</g>
	</g>
	<g>
		<g>
			<path class="st9" d="M259,473.1c-0.5-1.7-0.2-3.3,0.8-4.8c-0.8,0.1-1.6,0.2-2.4,0.3c0.6,0.5,0.9,1,1.3,1.7c0,0,0.1-0.1,0.1-0.1
				c0,0,0,0,0,0c-0.5,0-0.4,0.2,0.4,0.7c-0.2-1.9-3.2-1.9-3,0c0.3,2.2,2.6,2.9,4.3,1.7c2.4-1.7,0.6-4.7-1-6.2
				c-0.7-0.7-1.8-0.5-2.4,0.3c-1.4,2.1-1.8,4.7-1.1,7.1C256.7,475.8,259.6,475,259,473.1L259,473.1z"/>
		</g>
	</g>
	<g>
		<g>
			<path class="st9" d="M228.5,498c4.5,2.7,10.5-3.3,7.6-7.8c-0.3-0.5-1.1-0.9-1.7-0.7c-2.8,1-4.1,4.2-2.7,6.9
				c0.9,1.7,3.5,0.2,2.6-1.5c-0.5-0.9,0-2.1,0.9-2.5c-0.6-0.2-1.1-0.5-1.7-0.7c1.2,1.9-1.5,4.9-3.5,3.7
				C228.4,494.5,226.9,497,228.5,498L228.5,498z"/>
		</g>
	</g>
	<g>
		<g>
			<path class="st9" d="M270.5,422.9c2.2-1.4,2.6-4.1,0.9-6.1c-0.4-0.5-1.3-0.6-1.8-0.2c-3.5,2.4-4.7,7-2.6,10.8
				c0.4,0.7,1.4,1,2.1,0.5c2.2-1.4,3.7-3.3,4.5-5.7c0.6-1.8-2.3-2.6-2.9-0.8c-0.6,1.7-1.7,3-3.1,3.9c0.7,0.2,1.4,0.4,2.1,0.5
				c-1.2-2.2-0.6-5.2,1.5-6.7c-0.6-0.1-1.2-0.2-1.8-0.2c0.4,0.5,0.1,1.1-0.3,1.4C267.4,421.3,268.9,423.9,270.5,422.9L270.5,422.9z"
				/>
		</g>
	</g>
	<g>
		<g>
			<path class="st9" d="M230,435.4c2.1,0.8,4.6,0.2,6.2-1.4c0.5-0.5,0.6-1.2,0.2-1.8c-1.9-3-7.1-1.6-7,2c0,0.7,0.5,1.2,1.1,1.4
				c3.5,1.2,6.7-3,5-6.1c-0.9-1.7-3.5-0.2-2.6,1.5c0.5,0.9-0.7,2-1.6,1.7c0.4,0.5,0.7,1,1.1,1.4c0-0.5,1.1-0.9,1.4-0.5
				c0.1-0.6,0.2-1.2,0.2-1.8c-0.9,0.9-2.1,1.1-3.2,0.7c-0.8-0.3-1.6,0.3-1.8,1C228.7,434.4,229.2,435.1,230,435.4L230,435.4z"/>
		</g>
	</g>
	<g>
		<g>
			<path class="st9" d="M285.6,448.5c2.3,4.1,9-0.4,5.9-4.3c-1.4-1.7-3.9-2.3-5.9-1.4c-2.5,1.1-3.5,3.8-3.9,6.3
				c-0.1,0.5,0.3,1.1,0.7,1.3c2.2,1,4.7,0.3,5.8-1.9c0.8-1.7-1.8-3.3-2.6-1.5c-0.3,0.6-0.9,1.2-1.7,0.9c0.2,0.4,0.5,0.9,0.7,1.3
				c0.2-1.7,1.5-4.4,3.6-3.6c2.1,0.8,0,1.9-0.2,1.5C287.2,445.3,284.6,446.8,285.6,448.5L285.6,448.5z"/>
		</g>
	</g>
	<g>
		<g>
			<path class="st9" d="M457.1,441.6c2.5,0.7,5,0.4,7.3-0.9c0.7-0.4,1-1.4,0.5-2.1c-1.4-2.1-4.1-3.1-6.5-2.4c-2.4,0.7-4,3.1-3.2,5.5
				c0.7,2.2,3.2,4,5.6,3.4c2.8-0.8,3.4-4.3,1-6c-1.6-1.1-3.1,1.5-1.5,2.6c0.3,0.2-0.2,0.4-0.3,0.5c-0.3,0.1-0.7-0.1-1-0.2
				c-0.6-0.4-1.2-1.2-1-1.9c0.5-1.8,3.5-1.1,4.3,0.1c0.2-0.7,0.4-1.4,0.5-2.1c-1.6,0.9-3.2,1.1-4.9,0.6
				C456,438.2,455.2,441.1,457.1,441.6L457.1,441.6z"/>
		</g>
	</g>
	<g>
		<g>
			<path class="st9" d="M231.2,435.4c2.4,0.7,5,0.3,7.1-1.1c0.7-0.5,0.9-1.3,0.5-2.1c-1.3-2.9-5.2-4.4-8.1-2.9
				c-1.5,0.8-1.4,2.9-0.6,4.2c0.9,1.5,2.6,2.2,4.2,1.8c1.9-0.5,1.1-3.4-0.8-2.9c-0.7,0.2-1.1-0.7-0.9-1.3c-0.2,0.3-0.5,0.6-0.7,0.9
				c1.6-0.8,3.5,0.1,4.2,1.6c0.2-0.7,0.4-1.4,0.5-2.1c-1.5,1-3.1,1.3-4.8,0.8C230.1,432,229.3,434.9,231.2,435.4L231.2,435.4z"/>
		</g>
	</g>
</g>
<g>
	<g>
		<path class="st1" d="M269,848c-36.9,0-67-30.1-67-67s30.1-67,67-67s67,30.1,67,67S305.9,848,269,848z"/>
		<path class="st2" d="M269,719c34.2,0,62,27.8,62,62s-27.8,62-62,62s-62-27.8-62-62S234.8,719,269,719 M269,709
			c-39.8,0-72,32.2-72,72s32.2,72,72,72s72-32.2,72-72S308.8,709,269,709L269,709z"/>
	</g>
	<g>
		<path class="st1" d="M501,849c-36.9,0-67-30.1-67-67s30.1-67,67-67s67,30.1,67,67S537.9,849,501,849z"/>
		<path class="st2" d="M501,720c34.2,0,62,27.8,62,62s-27.8,62-62,62s-62-27.8-62-62S466.8,720,501,720 M501,710
			c-39.8,0-72,32.2-72,72s32.2,72,72,72s72-32.2,72-72S540.8,710,501,710L501,710z"/>
	</g>
	<g class="st3">
		<linearGradient id="SVGID_4_" gradientUnits="userSpaceOnUse" x1="274" y1="781.5" x2="483" y2="781.5">
			<stop  offset="0" style="stop-color:#FFFFFF"/>
			<stop  offset="1" style="stop-color:#3B007F"/>
		</linearGradient>
		<path class="st10" d="M378.5,886C320.9,886,274,839.1,274,781.5S320.9,677,378.5,677S483,723.9,483,781.5S436.1,886,378.5,886z"/>
		<path class="st5" d="M378.5,682c54.9,0,99.5,44.6,99.5,99.5S433.4,881,378.5,881S279,836.4,279,781.5S323.6,682,378.5,682
			 M378.5,672C318,672,269,721,269,781.5S318,891,378.5,891S488,842,488,781.5S439,672,378.5,672L378.5,672z"/>
	</g>
	<g>
		<linearGradient id="SVGID_5_" gradientUnits="userSpaceOnUse" x1="188.5728" y1="781" x2="205.4272" y2="781">
			<stop  offset="0" style="stop-color:#FFFFFF"/>
			<stop  offset="1" style="stop-color:#3B007F"/>
		</linearGradient>
		<polygon class="st11" points="196.7,785.2 195,789.2 195.4,784.9 192.6,788.2 194.3,784.2 190.6,786.5 193.4,783.2 189.2,784.2 
			192.9,782 188.6,781.7 192.8,780.7 188.8,779 193.1,779.4 189.8,776.6 193.8,778.3 191.5,774.6 194.8,777.4 193.8,773.2 
			196,776.9 196.3,772.6 197.3,776.8 199,772.8 198.6,777.1 201.4,773.8 199.7,777.8 203.4,775.5 200.6,778.8 204.8,777.8 
			201.1,780 205.4,780.3 201.2,781.3 205.2,783 200.9,782.6 204.2,785.4 200.2,783.7 202.5,787.4 199.2,784.6 200.2,788.8 
			198,785.1 197.7,789.4 		"/>
		<polygon class="st5" points="193.8,739.9 192.2,761 181.3,742.9 186.2,763.4 170.3,749.7 181.3,767.6 161.9,759.5 178,773.1 
			156.9,771.4 176.5,779.4 155.9,784.2 177,785.8 158.9,796.7 179.4,791.8 165.7,807.7 183.6,796.7 175.5,816.1 189.1,800 
			187.4,821.1 195.4,801.5 200.2,822.1 201.8,801 212.7,819.1 207.8,798.6 223.7,812.3 212.7,794.4 232.1,802.5 216,788.9 
			237.1,790.6 217.5,782.6 238.1,777.8 217,776.2 235.1,765.3 214.6,770.2 228.3,754.3 210.4,765.3 218.5,745.9 204.9,762 
			206.6,740.9 198.6,760.5 193.8,739.9 		"/>
	</g>
	<g>
		<linearGradient id="SVGID_6_" gradientUnits="userSpaceOnUse" x1="565.5728" y1="782" x2="582.4272" y2="782">
			<stop  offset="0" style="stop-color:#FFFFFF"/>
			<stop  offset="1" style="stop-color:#3B007F"/>
		</linearGradient>
		<polygon class="st12" points="573.7,786.2 572,790.2 572.4,785.9 569.6,789.2 571.3,785.2 567.6,787.5 570.4,784.2 566.2,785.2 
			569.9,783 565.6,782.7 569.8,781.7 565.8,780 570.1,780.4 566.8,777.6 570.8,779.3 568.5,775.6 571.8,778.4 570.8,774.2 
			573,777.9 573.3,773.6 574.3,777.8 576,773.8 575.6,778.1 578.4,774.8 576.7,778.8 580.4,776.5 577.6,779.8 581.8,778.8 
			578.1,781 582.4,781.3 578.2,782.3 582.2,784 577.9,783.6 581.2,786.4 577.2,784.7 579.5,788.4 576.2,785.6 577.2,789.8 
			575,786.1 574.7,790.4 		"/>
		<polygon class="st5" points="570.8,740.9 569.2,762 558.3,743.9 563.2,764.4 547.3,750.7 558.3,768.6 538.9,760.5 555,774.1 
			533.9,772.4 553.5,780.4 532.9,785.2 554,786.8 535.9,797.7 556.4,792.8 542.7,808.7 560.6,797.7 552.5,817.1 566.1,801 
			564.4,822.1 572.4,802.5 577.2,823.1 578.8,802 589.7,820.1 584.8,799.6 600.7,813.3 589.7,795.4 609.1,803.5 593,789.9 
			614.1,791.6 594.5,783.6 615.1,778.8 594,777.2 612.1,766.3 591.6,771.2 605.3,755.3 587.4,766.3 595.5,746.9 581.9,763 
			583.6,741.9 575.6,761.5 570.8,740.9 		"/>
	</g>
	<polygon class="st8" points="470.5,841.5 523.5,936 415.5,936 	"/>
	<polygon class="st8" points="290.5,846.5 343.5,935.5 235.5,935.5 	"/>
	<g>
		<g>
			<path class="st9" d="M245.7,749.1c-0.9,3,1.7,5.8,4.8,5.8c3.3,0,6-3.5,6.3-6.6c0.5-5.9-10.1-7.5-10.6-1.1
				c-0.2,2.8,2.1,5.7,4.9,5.8c2.8,0.1,4.6-2.4,4.2-5c-0.3-2.4-2.1-4.6-4.7-4.3c-2.5,0.3-3.8,2.8-3.6,5.1c0.3,2.6,2.2,4.7,4.9,4.5
				c2.8-0.2,4.8-3,4.9-5.8c0.2-6.9-10.5-7.5-12.6-1.5c-1.2,3.5,2.3,6.4,5.4,7c3.1,0.6,6.6-0.2,8.6-2.8c4.6-5.9-2.5-14.2-9-10.5
				c-7.1,4.1,0,15.8,6.6,10.1c2.5-2.2,3-6,0.3-8.2c-2.5-2-6.3-1.6-8.2,1.1c-1.1,1.6,1.5,3.1,2.6,1.5c0.9-1.3,3.3-1.1,4.2,0.2
				c1,1.7-0.9,3.9-2.7,3.9c-4.1,0-3.4-6.7,0.9-6.5c5.2,0.2,4.7,7.2,0.1,8.2c-1.7,0.4-3.8,0.1-5.1-1.1c-2.4-2.1,0.8-4.2,2.9-4.1
				c5.4,0.1,2.2,6.9-0.1,5.2c-0.7-0.5-1-2.2-0.4-3c1.1-1.3,2.1,0.6,2.1,1.6c-0.1,2.2-2.5,1.2-3.1-0.3c-0.6-1.8,1.1-2.7,2.6-2.2
				c1.9,0.6,2,1.9,1.3,3.5c-0.4,0.9-1.2,2-2.3,2.2c-1.2,0.2-2.7-0.6-2.3-2C249.1,748,246.2,747.2,245.7,749.1L245.7,749.1z"/>
		</g>
	</g>
	<g>
		<g>
			<path class="st9" d="M517.1,738.2c0.1,5.3,7.3,7.3,10.2,2.8c3.2-4.9-1.1-10.5-6.4-10.8c-2.5-0.1-5.3,0.8-6.2,3.3
				c-0.8,2-0.3,4.5,1.3,6c3.8,3.6,10.9-1.8,7.9-6.2c-1.3-1.9-4.4-2-5.6,0c-1.6,2.6,1.2,5.3,3.8,4.9c1.9-0.3,1.1-3.2-0.8-2.9
				c-0.6,0.1-0.3-0.9,0.1-0.2c0.3,0.6,0,1.2-0.3,1.7c-0.8,1.1-2.3,1.5-3.2,0.4c-1.9-2.5,1.3-4.1,3.4-3.8c2.5,0.4,4.8,2.6,3.9,5.3
				c-0.9,2.5-5,2.8-5-0.3C520,736.3,517,736.3,517.1,738.2L517.1,738.2z"/>
		</g>
	</g>
	<g>
		<g>
			<path class="st9" d="M525.6,778.6c2.2,2.5,5.4,4.4,8.8,3.8c3-0.6,5.6-3.4,5.3-6.6c-0.3-2.5-2.6-4.2-5-4.1c-1.1,0-2.2,0.4-3,1.1
				c-0.5,0.4-0.8,0.9-1,1.5c-0.1,0.4-0.1,0.8-0.3,1.1c0,0.2,0,0.3-0.1,0.5c-0.2,0.5-0.8,0.7-1.6,0.4c0.1,1.9,3.1,1.9,3,0
				c-0.1-2.3-3.2-3.3-4.6-1.4c-1.6,2.2,1.4,4.4,3.5,4.1c1.1-0.2,2-0.8,2.4-1.8c0.4-0.8,0.2-1.9,1-2.4c0.5-0.3,1.3-0.1,1.8,0.1
				c2.4,1.2-0.1,4.1-1.9,4.5c-2.4,0.5-4.7-1.3-6.2-3C526.4,775.1,524.3,777.2,525.6,778.6L525.6,778.6z"/>
		</g>
	</g>
	<g>
		<g>
			<path class="st9" d="M501.7,807.8c-1.5-3-5.7-4.1-8.5-2.1c-0.6,0.4-0.9,1-0.7,1.7c0.6,2.2,1.3,4.6,3.2,6c1.7,1.3,3.9,1.3,5.6,0
				c1.5-1.1,2.3-3.3,1-4.8c-1.4-1.8-4-1.3-5.2,0.4c-1.1,1.6,1.5,3.1,2.6,1.5c0.2-0.3,0.3,0.1,0,0.4c-0.4,0.4-1.2,0.5-1.8,0.3
				c-1.6-0.7-2.1-3.2-2.5-4.7c-0.2,0.6-0.5,1.1-0.7,1.7c1.5-1.1,3.5-0.7,4.4,1C500,811.1,502.6,809.5,501.7,807.8L501.7,807.8z"/>
		</g>
	</g>
	<g>
		<g>
			<path class="st9" d="M499.5,760.4c3.2-0.2,4.3-4.3,1.7-6.2c-0.4-0.3-1.1-0.3-1.5,0c-2.9,1.8-3.9,5.3-2.5,8.4
				c0.2,0.4,0.8,0.8,1.3,0.7c4.8-0.5,8.6-4.5,8.4-9.4c0-0.6-0.4-1.3-1.1-1.4c-5.1-1.2-9.8,5.6-6,9.7c3.5,3.7,10.4,0.5,10.2-4.4
				c-0.1-1.9-3.1-1.9-3,0c0.1,2.1-2.9,3.9-4.8,2.6c-2.2-1.6,0.4-5.5,2.8-4.9c-0.4-0.5-0.7-1-1.1-1.4c0.1,3.2-2.1,6.1-5.4,6.4
				c0.4,0.2,0.9,0.5,1.3,0.7c-0.7-1.6,0-3.4,1.4-4.3c-0.5,0-1,0-1.5,0c0,0.2,0,0.4-0.2,0.6C497.6,757.6,497.5,760.6,499.5,760.4
				L499.5,760.4z"/>
		</g>
	</g>
	<g>
		<g>
			<path class="st9" d="M529.4,817.1c3-1.2,3.7-5.3,1.2-7.5c-3-2.5-7.6,0.6-7.5,4.2c0.1,4,4.9,6.1,8.2,4.4c3-1.6,5.3-6.7,1.2-8.3
				c-3.3-1.3-7.5,1.1-7.4,4.8c0.1,1.9,3.1,1.9,3,0c0-1.4,1.5-2.3,2.8-2.1c2.3,0.3-0.7,3.2-1.9,3.3c-2,0.2-4.1-2.3-2-3.7
				c1.9-1.3,3,1.6,1.6,2.1C526.8,815,527.6,817.9,529.4,817.1L529.4,817.1z"/>
		</g>
	</g>
	<g>
		<g>
			<path class="st9" d="M482.6,732.1c1.3-0.3,2.5-0.5,3.8-0.8c-0.6-0.5-1.3-1-1.9-1.4c0-0.3,0.4-0.2-0.2-0.2c-0.7,0-0.2-0.3-0.3,0.2
				c-0.7,0.3-1.5,0.6-2.2,0.9c1,0.4,1.3,1.2,1.2,2.2c0.6-0.5,1.3-1,1.9-1.4c-1.6-0.5-1.6-2.8-0.5-3.7c-0.8-0.1-1.6-0.2-2.4-0.3
				c1.3,1.6,2.1,3.5,2.3,5.6c0.2,1.9,3.2,1.9,3,0c-0.2-2.6-1.1-5-2.7-7.1c-0.6-0.8-1.5-1-2.4-0.3c-3,2.5-1.7,7.6,1.8,8.7
				c1,0.3,1.8-0.5,1.9-1.4c0.2-2-0.9-4-2.7-4.8c-0.8-0.4-2-0.1-2.2,0.9c-1,4.2,6.4,5,6.3,0.8c0-1-0.9-1.6-1.9-1.4
				c-1.3,0.3-2.5,0.5-3.8,0.8C479.9,729.6,480.7,732.5,482.6,732.1L482.6,732.1z"/>
		</g>
	</g>
	<g>
		<g>
			<path class="st9" d="M483,733.2c4.2,0.8,8.4-3.4,6.9-7.7c-0.3-0.8-1-1.3-1.8-1c-2.8,0.7-4.5,3.8-3.6,6.6c0.2,0.6,0.8,1.2,1.4,1.1
				c2.4-0.2,4.6-1.5,5.6-3.8c0.3-0.6,0.3-1.3-0.2-1.8c-2.6-2.6-5.6,3.5-1.6,3.8c1.9,0.1,1.9-2.9,0-3c2.2,0.2,0.7,2.5-0.5,1.3
				c-0.1-0.6-0.2-1.2-0.2-1.8c-0.6,1.3-1.6,2.2-3,2.3c0.5,0.4,1,0.7,1.4,1.1c-0.4-1.2,0.2-2.5,1.5-2.9c-0.6-0.3-1.2-0.7-1.8-1
				c0.7,1.9-1.1,4.4-3.2,4C482,729.9,481.1,732.8,483,733.2L483,733.2z"/>
		</g>
	</g>
	<g>
		<g>
			<path class="st9" d="M496.3,834.4c-0.9-1.2-0.4-4.4,1.6-4c1.3,0.3,1.9,2.7,0.7,3.4c0.5,0,1,0,1.5,0c-1.6-0.7-2.3-3-1-4.3
				c-0.7,0-1.4,0-2.1,0c1.7,1.5,1.6,4.4-0.3,5.7c-1.6,1-0.1,3.6,1.5,2.6c3.5-2.2,4.1-7.5,1-10.4c-0.6-0.5-1.5-0.6-2.1,0
				c-2.2,2.4-2,6.3,0.6,8.4c3,2.5,5.2-1.7,4.6-4.4c-0.6-2.9-3.6-4.9-6.4-3.4c-2.8,1.4-4,5.5-2,8C494.9,837.5,497.5,836,496.3,834.4
				L496.3,834.4z"/>
		</g>
	</g>
	<g>
		<g>
			<path class="st9" d="M509.6,780.6c-1.3,1.9-0.1,4.9,2.3,5.3c-0.4-0.5-0.7-1-1.1-1.4c0,0.7-1.9,0.9-2.1,0.4c-0.5-0.8,1.6-1.7,2-1
				c0.7,1.2,2.9,0.8,2.8-0.8c-0.2-3.5-5.9-2.5-5,0.7c0.5,1.9,3.4,1.1,2.9-0.8c0,0.4-0.1,0.6-0.4,0.8c-0.1,0-0.1,0,0.1,0
				c-0.3,0-0.6-0.3-0.7-0.7c0.9-0.3,1.9-0.5,2.8-0.8c-2.3-3.6-8.8-0.9-7.5,3.3c1.3,4,7.8,2.8,8-1.2c0-0.6-0.5-1.4-1.1-1.4
				c-0.5-0.1-0.8-0.4-0.5-0.9C513.2,780.5,510.6,779,509.6,780.6L509.6,780.6z"/>
		</g>
	</g>
	<g>
		<g>
			<path class="st9" d="M533.7,754.4c-1.6,2.9,1,6.2,4.1,6.3c3.5,0.1,4.9-3.8,3.7-6.7c-1.5-3.4-5.5-4.2-8.4-2.1
				c-1.4,1-2.7,2.7-2.9,4.5c-0.1,1.4,0.8,2.9,1.9,3.7c2.5,1.8,6.6,1.5,8.1-1.5c0.8-1.7-1.7-3.2-2.6-1.5c-0.6,1.3-2.3,1.4-3.5,0.7
				c-2.1-1.2,0.2-3.6,1.8-4c1.7-0.5,3.7,1.3,3,3.1c-0.7,1.6-3.3,0.1-2.6-1.1C537.2,754.2,534.6,752.7,533.7,754.4L533.7,754.4z"/>
		</g>
	</g>
	<g>
		<g>
			<path class="st9" d="M521.9,838.1c0.2-2.9,4-4.3,6.2-2.8c0-0.9,0-1.7,0-2.6c-1.2,0.5-2.3,1.1-3.5,1.6c-1.8,0.8-0.2,3.4,1.5,2.6
				c1.2-0.5,2.3-1.1,3.5-1.6c1.1-0.5,0.8-2,0-2.6c-4.3-2.9-10.3,0.4-10.7,5.4C518.7,840,521.7,840,521.9,838.1L521.9,838.1z"/>
		</g>
	</g>
	<g>
		<g>
			<path class="st9" d="M461.1,761.1c-0.6,2.8-0.3,5.6,1,8.2c0.3,0.7,1.4,1,2.1,0.5c2.5-1.8,6.8-5.9,3.5-9c-2-1.8-6.4-1.6-6.2,1.8
				c0.1,1.9,3.1,1.9,3,0c0-0.6,0,0-0.1,0c0.3,0,0.2-0.1,0.5,0c0.3,0.1,0.8,0.2,1,0.5c0.7,1.5-2.2,3.4-3.1,4c0.7,0.2,1.4,0.4,2.1,0.5
				c-0.9-1.9-1.1-3.9-0.7-5.9C464.4,760.1,461.5,759.3,461.1,761.1L461.1,761.1z"/>
		</g>
	</g>
	<g>
		<g>
			<path class="st9" d="M463.2,799.4c-4.5,0.8-3.4,7.5,1.1,6.7c2.1-0.4,3.1-3.5,3.6-5.3c0.8-2.7,0.9-5.4,0.5-8.2
				c-0.1-0.6-0.9-1.2-1.4-1.1c-4,0.5-6.6,5.2-4.2,8.7c1.1,1.6,3.7,0.1,2.6-1.5c-1-1.4-0.3-4,1.6-4.2c-0.5-0.4-1-0.7-1.4-1.1
				c0.3,2,0.2,4-0.3,5.9c-0.2,0.8-0.5,1.7-0.9,2.4c-0.2,0.5-0.4,0.9-0.7,1.3c-0.4,0.3-0.3,0,0.3-0.8
				C465.9,801.9,465.1,799,463.2,799.4L463.2,799.4z"/>
		</g>
	</g>
	<g>
		<g>
			<path class="st9" d="M449.6,783.9c3.1-2,4.2-5.9,2.7-9.3c-0.4-0.9-1.8-1-2.4-0.3c-1.8,2-2.7,4.4-2.7,7c0,1.9,3,1.9,3,0
				c0-1.9,0.5-3.5,1.8-4.9c-0.8-0.1-1.6-0.2-2.4-0.3c0.8,1.9,0,4.1-1.6,5.2C446.5,782.3,448,784.9,449.6,783.9L449.6,783.9z"/>
		</g>
	</g>
	<g>
		<g>
			<path class="st9" d="M476,833.3c2.4,0.2,4.4-0.9,5.8-2.8c-0.9-0.5-1.7-1-2.6-1.5c-1.1,1.9-1.4,4-0.9,6.2c0.2,0.9,1.4,1.4,2.2,0.9
				c1.3-0.8,2.6-1.5,4-2.3c1.7-1,0.2-3.6-1.5-2.6c-1.3,0.8-2.6,1.5-4,2.3c0.7,0.3,1.5,0.6,2.2,0.9c-0.3-1.4-0.1-2.6,0.6-3.8
				c1-1.7-1.4-3-2.6-1.5c-0.8,1-2,1.4-3.2,1.3C474.1,830.2,474.1,833.2,476,833.3L476,833.3z"/>
		</g>
	</g>
	<g>
		<g>
			<path class="st9" d="M462.9,822.1c0,0.4-0.3,0.6-0.6,0.8c-0.2,0-0.2,0-0.1,0c-0.2,0-0.2,0-0.1,0c0.1,0,0.1,0,0.2,0.1
				c-0.2-0.1-0.2-0.1,0,0c-0.2-0.2-0.3-0.2-0.3-0.5c0.5-0.5,1-1,1.5-1.5c0.1,0-0.1,0-0.1,0c0.1,0.1-0.1,0-0.1-0.1
				c0,0-0.2-0.2-0.2-0.2c-0.1-0.2-0.1-0.2-0.1-0.3c0,0,0-0.2,0-0.2c-0.2,0.2-0.4,0.4-0.5,0.5c0.5-0.3,1-0.4,1.4,0
				c1.4,1.3,3.6-0.8,2.1-2.1c-0.9-0.8-2-1.2-3.1-1.1c-1.2,0.1-2.5,0.6-2.8,1.9c-0.6,2.3,1.2,4.4,3.4,4.6c0.8,0,1.6-0.7,1.5-1.5
				c-0.1-1.4-1.1-2.3-2.4-2.5c-1.4-0.2-2.7,0.7-2.6,2.2C459.9,824,462.9,824.1,462.9,822.1L462.9,822.1z"/>
		</g>
	</g>
	<g>
		<g>
			<path class="st9" d="M237.9,767.6c2.8,2.2,7.1-0.1,7-3.7c-0.2-3.7-4.8-4.6-7.4-2.8c-3.3,2.2-2.1,7,0.9,8.8
				c3.9,2.4,8.3-0.6,9.7-4.5c0.2-0.5,0-1.1-0.4-1.5c-2.9-2.5-7.3-1.3-8.7,2.3c-0.7,1.8,2.2,2.6,2.9,0.8c0.5-1.4,2.5-1.9,3.7-0.9
				c-0.1-0.5-0.3-1-0.4-1.5c-0.6,1.7-2.2,3.2-4,3.1c-1.5-0.1-3.2-1.8-2.6-3.3c0.4-1,1.9-1.6,2.8-1c1.3,0.8-0.5,2.8-1.3,2.1
				C238.5,764.3,236.4,766.4,237.9,767.6L237.9,767.6z"/>
		</g>
	</g>
	<g>
		<g>
			<path class="st9" d="M310.1,756.7c2.1,0.7,4.1,0.2,5.8-1.2c0.6-0.5,0.5-1.6,0-2.1c-1.9-1.9-4.2-3.7-7-3.8c-2.2,0-4.2,1.3-5.1,3.4
				c-2,4.7,4.5,7.8,7.1,3.5c1-1.6-1.6-3.2-2.6-1.5c-0.5,0.8-1.9,0.8-1.9-0.3c0-0.7,0.7-1.5,1.3-1.8c2.2-1.1,4.6,1.2,6,2.6
				c0-0.7,0-1.4,0-2.1c-0.9,0.7-1.9,0.7-2.9,0.4C309.1,753.2,308.3,756.1,310.1,756.7L310.1,756.7z"/>
		</g>
	</g>
	<g>
		<g>
			<path class="st9" d="M311.4,784.2c1.9,2.1,5.5,1.5,7.1-0.7c1.7-2.4,0.2-5.4-2.6-5.8c-2.3-0.3-5.5,1.2-5,3.9
				c0.2,1.5,2.3,2.7,3.6,3.2c1.6,0.6,3.4,0.7,5,0.1c1.1-0.4,1.6-2.1,0.4-2.7c-2.3-1.1-4.6-1.5-7.1-1c-1.9,0.3-1.1,3.2,0.8,2.9
				c1.7-0.3,3.3,0,4.8,0.7c0.1-0.9,0.2-1.8,0.4-2.7c-0.8,0.3-1.5,0.4-2.4,0.2c-0.9-0.2-1.4-0.7-2.1-1.1c-0.4-0.2-0.1-0.2-0.2,0
				c0.1-0.1,0.1-0.2,0.2-0.2c0.4-0.1,0.7-0.3,1.1-0.3c2.3,0.1-0.3,3.1-1.7,1.5C312.2,780.7,310.1,782.8,311.4,784.2L311.4,784.2z"/>
		</g>
	</g>
	<g>
		<g>
			<path class="st9" d="M302.3,811.2c-0.2-0.4,1-0.9,1.3-0.8c1,0.2,0.5,1.6,0.1,2.1c-0.7,0.9-2.1,1.3-3,0.5
				c-0.3-0.2-0.5-0.5-0.3-0.8c0.3-0.4,0.7-0.1,0.4-0.4c1.1,1.6,3.7,0.1,2.6-1.5c-2-2.8-6.6-0.8-6.1,2.6c0.6,3.8,5.6,4.5,8.1,2.2
				c2.3-2.1,2.6-6.9-1.2-7.6c-2.9-0.6-6.1,2.4-4.5,5.3C300.6,814.4,303.2,812.9,302.3,811.2L302.3,811.2z"/>
		</g>
	</g>
	<g>
		<g>
			<path class="st9" d="M289.1,780c1.4,0.2,2.1,2.7,0.9,3.6c-1.6,1.1-3.2-2.1-1.9-3.2c-0.7,0-1.4,0-2.1,0c0.6,0.6,0.8,1.3,0.8,2.1
				c0,1.9,3,1.9,3,0c0-1.6-0.6-3-1.7-4.2c-0.6-0.6-1.5-0.5-2.1,0c-3.6,3.3,0.6,10.3,5.1,8.2c3.8-1.8,3.1-8.6-1.2-9.3
				C288.1,776.8,287.2,779.7,289.1,780L289.1,780z"/>
		</g>
	</g>
	<g>
		<g>
			<path class="st9" d="M266.8,831.4c-0.3,0.1-0.3,0.2,0,0.2c0.2,0,0.3,0.1,0.4,0.2c-0.1,0.2-0.4,0.4-0.6,0.5
				c-1.1,0.6-2.2-0.5-2.7-1.3c-1.4-2.2-1.5-4.9-2.8-7.1c-0.3,0.7-0.6,1.5-0.9,2.2c1.9-0.3,3.2,1.6,3,3.3c-0.2,1.9,2.8,1.9,3,0
				c0.5-3.8-3.2-6.8-6.8-6.2c-1,0.2-1.4,1.5-0.9,2.2c1.7,2.6,1.6,6.1,3.9,8.4c1.8,1.8,4.7,2.2,6.6,0.5c4.3-3.8-3.5-8.5-5-3.7
				C263.4,832.4,266.3,833.2,266.8,831.4L266.8,831.4z"/>
		</g>
	</g>
	<g>
		<g>
			<path class="st9" d="M240.2,821c0.3,0,0-0.2-0.1-0.2C240,820.8,240.1,820.9,240.2,821c-0.1,0-0.1,0.3-0.1,0.3
				c0.1,0.2-0.2,0.1,0,0.1c0,0,0.2-0.1,0.2-0.1c0.1-0.3,0.1,0.2,0-0.1c0-0.1-0.2-0.2-0.3-0.3c-0.2-0.4-0.2-0.8,0.1-1.1
				c-0.4,0.1-0.7,0.3-1.1,0.4c0.3,0,0.7,0.2,0.7,0.6c0.1-0.3,0.1-0.5,0.2-0.8c-0.5,0.7-2.3-0.5-1.9-1.2c0.2-0.3,0.8-0.3,1.3-0.2
				c0.6,0.2,0.9,0.5,0.8,0.9c-0.1,1.9,2.9,1.9,3,0c0.2-3.2-3.8-4.9-6.3-3.6c-1.4,0.7-2.2,2.4-1.7,3.9c0.4,1.5,1.7,2.6,3.2,3
				c1.5,0.4,3.3,0.1,4.2-1.3c1.2-1.8-1-4.1-2.7-4.5c-2.2-0.4-3.1,2.1-2.8,3.9c0.3,1.6,1.6,3.1,3.4,3.1c3.8,0.1,3.6-6.7-0.1-6.2
				c-0.8,0.1-1.5,0.6-1.5,1.5C238.7,820.2,239.4,821.1,240.2,821L240.2,821z"/>
		</g>
	</g>
	<g>
		<g>
			<path class="st9" d="M256.5,799.4c-0.4-1.3-0.1-2.6,0.8-3.7c-0.6,0.1-1.2,0.2-1.8,0.2c3.2,1.6,1.9,6.5-1.8,5.8
				c-1.6-0.3-2.7-1.9-2.1-3.5c0.6-1.3,2.7-1.1,2.6,0.4c-0.1,1.9,2.9,1.9,3,0c0.2-3.5-4.2-5.5-6.9-3.5c-2.9,2.1-2.3,6.8,0.6,8.7
				c2.8,1.9,7.2,1.1,8.8-2c1.6-2.9,0.3-6.9-2.7-8.4c-0.6-0.3-1.4-0.3-1.8,0.2c-1.6,1.8-2.3,4.2-1.6,6.6
				C254.2,802,257.1,801.2,256.5,799.4L256.5,799.4z"/>
		</g>
	</g>
	<g>
		<g>
			<path class="st9" d="M259,777.1c-0.5-1.7-0.2-3.3,0.8-4.8c-0.8,0.1-1.6,0.2-2.4,0.3c0.6,0.5,0.9,1,1.3,1.7c0,0,0.1-0.1,0.1-0.1
				c0,0,0,0,0,0c-0.5,0-0.4,0.2,0.4,0.7c-0.2-1.9-3.2-1.9-3,0c0.3,2.2,2.6,2.9,4.3,1.7c2.4-1.7,0.6-4.7-1-6.2
				c-0.7-0.7-1.8-0.5-2.4,0.3c-1.4,2.1-1.8,4.7-1.1,7.1C256.7,779.8,259.6,779,259,777.1L259,777.1z"/>
		</g>
	</g>
	<g>
		<g>
			<path class="st9" d="M228.5,802c4.5,2.7,10.5-3.3,7.6-7.8c-0.3-0.5-1.1-0.9-1.7-0.7c-2.8,1-4.1,4.2-2.7,6.9
				c0.9,1.7,3.5,0.2,2.6-1.5c-0.5-0.9,0-2.1,0.9-2.5c-0.6-0.2-1.1-0.5-1.7-0.7c1.2,1.9-1.5,4.9-3.5,3.7
				C228.4,798.5,226.9,801,228.5,802L228.5,802z"/>
		</g>
	</g>
	<g>
		<g>
			<path class="st9" d="M270.5,726.9c2.2-1.4,2.6-4.1,0.9-6.1c-0.4-0.5-1.3-0.6-1.8-0.2c-3.5,2.4-4.7,7-2.6,10.8
				c0.4,0.7,1.4,1,2.1,0.5c2.2-1.4,3.7-3.3,4.5-5.7c0.6-1.8-2.3-2.6-2.9-0.8c-0.6,1.7-1.7,3-3.1,3.9c0.7,0.2,1.4,0.4,2.1,0.5
				c-1.2-2.2-0.6-5.2,1.5-6.7c-0.6-0.1-1.2-0.2-1.8-0.2c0.4,0.5,0.1,1.1-0.3,1.4C267.4,725.3,268.9,727.9,270.5,726.9L270.5,726.9z"
				/>
		</g>
	</g>
	<g>
		<g>
			<path class="st9" d="M230,739.4c2.1,0.8,4.6,0.2,6.2-1.4c0.5-0.5,0.6-1.2,0.2-1.8c-1.9-3-7.1-1.6-7,2c0,0.7,0.5,1.2,1.1,1.4
				c3.5,1.2,6.7-3,5-6.1c-0.9-1.7-3.5-0.2-2.6,1.5c0.5,0.9-0.7,2-1.6,1.7c0.4,0.5,0.7,1,1.1,1.4c0-0.5,1.1-0.9,1.4-0.5
				c0.1-0.6,0.2-1.2,0.2-1.8c-0.9,0.9-2.1,1.1-3.2,0.7c-0.8-0.3-1.6,0.3-1.8,1C228.7,738.4,229.2,739.1,230,739.4L230,739.4z"/>
		</g>
	</g>
	<g>
		<g>
			<path class="st9" d="M285.6,752.5c2.3,4.1,9-0.4,5.9-4.3c-1.4-1.7-3.9-2.3-5.9-1.4c-2.5,1.1-3.5,3.8-3.9,6.3
				c-0.1,0.5,0.3,1.1,0.7,1.3c2.2,1,4.7,0.3,5.8-1.9c0.8-1.7-1.8-3.3-2.6-1.5c-0.3,0.6-0.9,1.2-1.7,0.9c0.2,0.4,0.5,0.9,0.7,1.3
				c0.2-1.7,1.5-4.4,3.6-3.6c2.1,0.8,0,1.9-0.2,1.5C287.2,749.3,284.6,750.8,285.6,752.5L285.6,752.5z"/>
		</g>
	</g>
	<g>
		<g>
			<path class="st9" d="M457.1,745.6c2.5,0.7,5,0.4,7.3-0.9c0.7-0.4,1-1.4,0.5-2.1c-1.4-2.1-4.1-3.1-6.5-2.4c-2.4,0.7-4,3.1-3.2,5.5
				c0.7,2.2,3.2,4,5.6,3.4c2.8-0.8,3.4-4.3,1-6c-1.6-1.1-3.1,1.5-1.5,2.6c0.3,0.2-0.2,0.4-0.3,0.5c-0.3,0.1-0.7-0.1-1-0.2
				c-0.6-0.4-1.2-1.2-1-1.9c0.5-1.8,3.5-1.1,4.3,0.1c0.2-0.7,0.4-1.4,0.5-2.1c-1.6,0.9-3.2,1.1-4.9,0.6
				C456,742.2,455.2,745.1,457.1,745.6L457.1,745.6z"/>
		</g>
	</g>
	<g>
		<g>
			<path class="st9" d="M231.2,739.4c2.4,0.7,5,0.3,7.1-1.1c0.7-0.5,0.9-1.3,0.5-2.1c-1.3-2.9-5.2-4.4-8.1-2.9
				c-1.5,0.8-1.4,2.9-0.6,4.2c0.9,1.5,2.6,2.2,4.2,1.8c1.9-0.5,1.1-3.4-0.8-2.9c-0.7,0.2-1.1-0.7-0.9-1.3c-0.2,0.3-0.5,0.6-0.7,0.9
				c1.6-0.8,3.5,0.1,4.2,1.6c0.2-0.7,0.4-1.4,0.5-2.1c-1.5,1-3.1,1.3-4.8,0.8C230.1,736,229.3,738.9,231.2,739.4L231.2,739.4z"/>
		</g>
	</g>
</g>
<g>
	<g>
		<g>
			<path class="st1" d="M239.2,236.6c-43.5,0-78.9-31.7-78.9-70.6s35.4-70.6,78.9-70.6s78.9,31.7,78.9,70.6S282.8,236.6,239.2,236.6
				z"/>
			<path class="st2" d="M239.2,100.4c40.7,0,73.9,29.4,73.9,65.6s-33.2,65.6-73.9,65.6s-73.9-29.4-73.9-65.6
				S198.5,100.4,239.2,100.4 M239.2,90.4c-46.3,0-83.9,33.9-83.9,75.6s37.6,75.6,83.9,75.6s83.9-33.9,83.9-75.6
				S285.6,90.4,239.2,90.4L239.2,90.4z"/>
		</g>
		<g>
			<path class="st1" d="M509.6,237.6c-43.5,0-78.9-31.7-78.9-70.6s35.4-70.6,78.9-70.6s78.9,31.7,78.9,70.6S553.1,237.6,509.6,237.6
				z"/>
			<path class="st2" d="M509.6,101.4c40.7,0,73.9,29.4,73.9,65.6s-33.2,65.6-73.9,65.6s-73.9-29.4-73.9-65.6
				S468.8,101.4,509.6,101.4 M509.6,91.4c-46.3,0-83.9,33.9-83.9,75.6s37.6,75.6,83.9,75.6s83.9-33.9,83.9-75.6
				S555.9,91.4,509.6,91.4L509.6,91.4z"/>
		</g>
		<g class="st3">
			<linearGradient id="SVGID_7_" gradientUnits="userSpaceOnUse" x1="244.25" y1="166.4937" x2="489.437" y2="166.4937">
				<stop  offset="0" style="stop-color:#FFFFFF"/>
				<stop  offset="1" style="stop-color:#3B007F"/>
			</linearGradient>
			<path class="st13" d="M366.8,276.5c-67.6,0-122.6-49.3-122.6-110s55-110,122.6-110c67.6,0,122.6,49.3,122.6,110
				S434.4,276.5,366.8,276.5z"/>
			<path class="st5" d="M366.8,61.5c64.8,0,117.6,47.1,117.6,105s-52.8,105-117.6,105s-117.6-47.1-117.6-105S302,61.5,366.8,61.5
				 M366.8,51.5c-70.5,0-127.6,51.5-127.6,115s57.1,115,127.6,115s127.6-51.5,127.6-115S437.3,51.5,366.8,51.5L366.8,51.5z"/>
		</g>
		<g>
			<linearGradient id="SVGID_8_" gradientUnits="userSpaceOnUse" x1="143.6157" y1="165.9683" x2="167.0894" y2="165.9683">
				<stop  offset="0" style="stop-color:#FFFFFF"/>
				<stop  offset="1" style="stop-color:#3B007F"/>
			</linearGradient>
			<polygon class="st14" points="154.7,172.7 151.8,179.1 152.5,172 147.9,176.8 150.8,170.6 145.3,173.6 149.8,168.9 144,170.1 
				149.4,167.2 143.6,166.8 149.4,165.6 143.7,163.5 149.6,163.9 144.5,160.1 150.2,162.2 146.4,156.6 151.5,160.6 149.7,153.8 
				153.6,159.5 154.2,152.4 156,159.3 158.9,152.9 158.2,160 162.8,155.1 159.9,161.4 165.4,158.3 160.9,163.1 166.7,161.8 
				161.3,164.8 167.1,165.2 161.3,166.4 167,168.5 161.1,168 166.2,171.9 160.5,169.7 164.3,175.3 159.2,171.3 161,178.1 
				157.1,172.4 156.5,179.6 			"/>
			<polygon class="st5" points="151.6,122.8 149.8,144.9 137,126 142.8,147.5 124.2,133.1 137.1,151.9 114.4,143.4 133.2,157.7 
				108.7,155.9 131.4,164.3 107.5,169.3 132,171 111,182.5 134.9,177.3 118.8,194.1 139.8,182.4 130.3,202.8 146.2,185.9 144.1,208 
				153.5,187.5 159.1,209.1 160.9,187 173.7,205.9 167.9,184.4 186.5,198.9 173.6,180 196.3,188.6 177.5,174.3 202,176.1 
				179.3,167.7 203.2,162.6 178.7,160.9 199.7,149.4 175.8,154.7 191.9,137.9 170.9,149.5 180.4,129.1 164.5,146 166.6,123.9 
				157.2,144.4 151.6,122.8 			"/>
		</g>
		<g>
			<linearGradient id="SVGID_9_" gradientUnits="userSpaceOnUse" x1="582.9106" y1="167.019" x2="606.3867" y2="167.019">
				<stop  offset="0" style="stop-color:#FFFFFF"/>
				<stop  offset="1" style="stop-color:#3B007F"/>
			</linearGradient>
			<polygon class="st15" points="594,173.7 591.1,180.1 591.8,173 587.2,177.9 590.1,171.6 584.6,174.7 589.1,169.9 583.3,171.2 
				588.7,168.2 582.9,167.8 588.7,166.6 583,164.5 588.9,165 583.8,161.1 589.5,163.3 585.7,157.7 590.8,161.7 589,154.8 
				592.9,160.6 593.5,153.4 595.3,160.3 598.2,153.9 597.5,161 602.1,156.1 599.2,162.4 604.7,159.4 600.2,164.1 606,162.9 
				600.6,165.8 606.4,166.2 600.6,167.4 606.3,169.5 600.4,169.1 605.5,172.9 599.8,170.8 603.6,176.4 598.5,172.4 600.3,179.2 
				596.4,173.5 595.8,180.6 			"/>
			<polygon class="st5" points="590.9,123.9 589.1,146 576.3,127 582.1,148.6 563.5,134.1 576.4,153 553.7,144.4 572.5,158.7 
				548,156.9 570.7,165.3 546.8,170.4 571.3,172.1 550.3,183.6 574.2,178.3 558.1,195.1 579.1,183.5 569.6,203.9 585.5,187 
				583.4,209.1 592.8,188.6 598.4,210.1 600.2,188.1 613,207 607.2,185.5 625.8,199.9 612.9,181.1 635.6,189.6 616.8,175.3 
				641.3,177.1 618.6,168.7 642.5,163.6 618,162 639,150.5 615.1,155.7 631.2,138.9 610.2,150.6 619.7,130.1 603.8,147 605.9,125 
				596.5,145.5 590.9,123.9 			"/>
		</g>
		<polygon class="st8" points="474,229.5 535.8,328.7 410,328.7 		"/>
		<polygon class="st8" points="264.3,234.8 326.1,328.2 200.2,328.2 		"/>
		<g>
			<g>
				<path class="st9" d="M212.3,132.5c-1,3.4,2.3,6.2,5.6,6c3.4-0.1,6.7-3.8,6.8-7.1c0.2-6-11.2-7.4-11.8-1.1
					c-0.7,6.8,10.8,8.5,10.2,1.2c-0.5-6.4-9.9-6-9.2,0.6c0.8,7.4,11.3,4.9,10.9-1.9c-0.5-7-12.5-6.9-14.3-0.7
					c-1,3.6,2.9,6.2,5.9,6.9c3.4,0.8,7.4,0.1,9.9-2.5c2.5-2.7,2.5-6.9,0-9.6c-2.3-2.5-6.2-3.1-9.3-1.8c-8.5,3.5-1.8,16.1,6.1,11.2
					c3.1-1.9,4.3-6.3,1.2-8.8c-2.6-2.1-7-2.1-9.1,0.6c-1.2,1.5,0.9,3.6,2.1,2.1c1.1-1.4,3.2-1.7,4.7-0.7c2.5,1.6,0.4,4.3-1.9,4.8
					c-2.2,0.4-4.2-1.3-4.1-3.5c0-2.4,2.4-3.5,4.6-3.4c5.6,0.2,6,7.1,0.9,8.6c-1.6,0.5-3.3,0.4-4.8,0c-1.5-0.5-3.9-1.6-2.7-3.8
					c0.4-0.7,1.5-1.1,2.2-1.4c1.7-0.5,4.1-0.5,5.2,1c1.2,1.6,0.1,4.2-1.9,4.6c-1.7,0.3-3.3-1.7-2.3-3.3c0.9-1.5,2.7-0.3,3,1
					c0.6,2.6-2.8,2.4-3.8,0.6c-1-1.8,0.5-3.1,2.4-2.9c1.8,0.2,3.4,1.3,2.7,3.1c-0.4,1-1.1,2.1-2.1,2.7c-1.2,0.7-4.8,0.7-4.1-1.7
					C215.8,131.4,212.9,130.6,212.3,132.5L212.3,132.5z"/>
			</g>
		</g>
		<g>
			<g>
				<path class="st9" d="M528.6,121.1c0.1,5.8,8.3,7.3,11.4,2.9c3.8-5.4-1.6-10.8-7-11.3c-2.7-0.2-6.1,0.6-7.2,3.4
					c-0.9,2.1-0.2,4.7,1.5,6.2c4,3.5,12.3-1.6,8.8-6.5c-1.5-2.1-5.2-2.1-6.3,0.4c-1.2,2.8,1.8,5,4.3,4.6c1.9-0.3,1.1-3.2-0.8-2.9
					c-1.4,0.2-0.4-1.4,0.4-0.2c0.3,0.5-0.3,1.5-0.6,1.8c-1,1.1-2.9,1.5-4,0.3c-0.7-0.7-0.9-1.9-0.4-2.8c0.9-1.5,3.4-1.5,4.9-1.3
					c2.6,0.5,5.7,2.6,4.5,5.6c-1,2.7-6.3,3.1-6.4-0.4C531.5,119.1,528.5,119.1,528.6,121.1L528.6,121.1z"/>
			</g>
		</g>
		<g>
			<g>
				<path class="st9" d="M538.4,163.4c2.6,2.7,6.5,4.8,10.4,3.9c3-0.7,6-3.5,5.6-6.8c-0.3-2.8-3.1-4.3-5.7-4.3
					c-1.2,0-2.5,0.4-3.4,1.2c-0.4,0.4-0.8,0.9-1,1.5c-0.2,0.4-0.1,0.9-0.3,1.2c-0.1,0.1-2,1.9-2,0.9c0.1,1.9,3.1,1.9,3,0
					c-0.1-2.2-3-3.3-4.6-1.7c-2.2,2.1,1,4.6,3.2,4.5c1.2-0.1,2.3-0.6,2.9-1.7c0.4-0.8,0.3-1.9,1-2.5c0.6-0.5,1.7-0.4,2.5-0.2
					c3,1.1,0.4,4.3-1.7,4.9c-2.9,0.8-5.8-1-7.8-3C539.2,159.9,537.1,162,538.4,163.4L538.4,163.4z"/>
			</g>
		</g>
		<g>
			<g>
				<path class="st9" d="M510.2,194.2c-1.8-3.3-6.5-4.2-9.5-2.2c-0.6,0.4-0.9,1-0.7,1.7c0.7,2.3,1.5,4.8,3.6,6.3
					c1.9,1.4,4.4,1.4,6.4,0.1c1.6-1.1,2.5-3.3,1.1-5c-1.4-1.6-4.2-1.5-5.5,0.1c-1.2,1.5,0.9,3.6,2.1,2.1c0.3-0.4,1.3-0.7,0.8,0
					c-0.4,0.6-1.8,0.8-2.4,0.6c-2-0.6-2.7-3.3-3.2-5c-0.2,0.6-0.5,1.1-0.7,1.7c1.7-1.1,4.4-0.8,5.4,1.1
					C508.6,197.4,511.2,195.9,510.2,194.2L510.2,194.2z"/>
			</g>
		</g>
		<g>
			<g>
				<path class="st9" d="M507.8,144.3c3.3-0.2,4.8-4.4,1.9-6.3c-0.4-0.3-1.1-0.3-1.5,0c-3.2,1.8-4.4,5.4-2.8,8.7
					c0.2,0.4,0.8,0.8,1.3,0.7c5.1-0.4,9.8-4.4,9.5-9.8c0-0.6-0.4-1.3-1.1-1.4c-5.3-1.1-11.4,5.8-6.6,10.2c3.7,3.4,11.5,0.6,11.3-4.7
					c-0.1-1.9-3.1-1.9-3,0c0.1,2.5-3.7,3.9-5.7,2.9c-3.4-1.7,0.5-6,3.2-5.4c-0.4-0.5-0.7-1-1.1-1.4c0.2,3.7-3,6.5-6.5,6.8
					c0.4,0.2,0.9,0.5,1.3,0.7c-0.9-1.8,0-3.7,1.7-4.6c-0.5,0-1,0-1.5,0c0.2,0.4,0.1,0.6-0.4,0.8
					C505.9,141.4,505.9,144.4,507.8,144.3L507.8,144.3z"/>
			</g>
		</g>
		<g>
			<g>
				<path class="st9" d="M542.6,203.8c5-1.9,3.1-9.3-2.2-8.6c-2.3,0.3-4.6,2.3-4.8,4.7c-0.1,2.6,1.9,4.6,4.3,5.4
					c2.7,0.8,5.5-0.1,7.3-2.3c1.6-1.9,2.4-4.7,0.1-6.2c-3.4-2.2-9.5,0-9.3,4.4c0.1,1.9,3.1,1.9,3,0c-0.1-1.6,1.8-2.3,3.2-2.3
					c0.6,0,1.5,0.1,1.6,0.6c0.2,1.2-1.9,2.6-2.8,2.9c-1.9,0.6-5.9-1.3-3.7-3.6c2.2-2.2,4.7,1.2,2.6,2
					C540,201.6,540.8,204.5,542.6,203.8L542.6,203.8z"/>
			</g>
		</g>
		<g>
			<g>
				<path class="st9" d="M488,114.6c1.5-0.3,2.9-0.5,4.4-0.8c-0.6-0.5-1.3-1-1.9-1.4c0,0,0.2-0.2,0.2-0.2c-0.2,0-0.5,0.1-0.8,0.1
					c-0.1,0-0.3-0.1-0.5-0.1c-0.2,0,0.1,0,0,0.3c-0.6,0.3-1.2,0.7-1.8,1c1,0.4,1.3,1.3,1.2,2.2c0.6-0.5,1.3-1,1.9-1.4
					c-1.5-0.4-2.4-2.7-1-3.8c-0.6-0.1-1.2-0.2-1.8-0.2c1.4,1.6,2.2,3.5,2.5,5.6c0.2,1.9,3.2,1.9,3,0c-0.3-2.9-1.4-5.5-3.3-7.7
					c-0.4-0.5-1.3-0.6-1.8-0.2c-3.5,2.6-2.4,8,1.7,9.3c1,0.3,1.8-0.5,1.9-1.4c0.3-2.4-1.3-4.3-3.4-5.1c-0.7-0.3-1.7,0.3-1.8,1
					c-1.1,4.3,7,5.1,6.9,0.8c0-1-0.9-1.6-1.9-1.4c-1.5,0.3-2.9,0.5-4.4,0.8C485.3,112,486.1,114.9,488,114.6L488,114.6z"/>
			</g>
		</g>
		<g>
			<g>
				<path class="st9" d="M488.7,115.7c4.3,0.8,9.6-3.2,7.8-8c-0.3-0.8-1-1.3-1.8-1c-3,0.7-5.1,3.8-4,6.8c0.2,0.6,0.8,1.1,1.4,1.1
					c2.6-0.2,5.1-1.5,6.3-3.9c0.3-0.6,0.3-1.4-0.2-1.8c-3-2.6-5.7,3.6-1.7,3.9c1.9,0.1,1.9-2.9,0-3c1.4,1.1,1.3,1.5-0.4,1.2
					c-0.1-0.6-0.2-1.2-0.2-1.8c-0.7,1.5-2.1,2.3-3.7,2.4c0.5,0.4,1,0.7,1.4,1.1c-0.6-1.5,0.4-2.8,1.9-3.1c-0.6-0.3-1.2-0.7-1.8-1
					c0.9,2.4-1.7,4.7-4.1,4.3C487.6,112.4,486.8,115.3,488.7,115.7L488.7,115.7z"/>
			</g>
		</g>
		<g>
			<g>
				<path class="st9" d="M503.7,221.8c-1.3-1.6,0.4-4.3,2.4-4c1.7,0.3,2.5,2.8,0.9,3.7c0.4-0.1,0.8-0.1,1.2-0.2
					c-1.8-0.8-2.3-3.2-0.9-4.5c-0.7,0-1.4,0-2.1,0c2.1,1.7,1.9,4.7-0.5,6.1c-1.7,1-0.2,3.6,1.5,2.6c3.9-2.2,4.6-7.9,1.1-10.8
					c-0.6-0.5-1.5-0.6-2.1,0c-2.5,2.4-2.2,6.5,0.5,8.6c1.5,1.2,2.9,1.2,4.2-0.3c1-1.2,1.2-2.9,0.8-4.4c-0.9-3.2-4.5-4.9-7.5-3.2
					c-3,1.7-3.8,5.8-1.6,8.4C502.8,225.4,504.9,223.3,503.7,221.8L503.7,221.8z"/>
			</g>
		</g>
		<g>
			<g>
				<path class="st9" d="M519.8,165.6c-1.5,2.1,0.1,5.1,2.5,5.4c-0.4-0.5-0.7-1-1.1-1.4c-0.1,0.9-2.8,1.2-3,0.3
					c-0.3-1,2.3-1.7,2.9-0.9c0.8,1.1,2.9,0.9,2.8-0.8c-0.2-3.6-6.3-2.6-5.3,0.8c0.6,1.8,3.5,1.1,2.9-0.8c0,0.3-0.1,0.6-0.3,0.8
					c-0.1,0,0,0,0.2,0c-0.2-0.1-0.4-0.3-0.4-0.7c0.9-0.3,1.9-0.5,2.8-0.8c-1.3-1.8-3.6-2.2-5.6-1.4c-1.9,0.8-3.4,2.6-2.7,4.8
					c1.4,4.1,8.6,3,8.9-1.3c0-0.6-0.5-1.4-1.1-1.4c-0.6-0.1-1.1-0.5-0.7-1C523.5,165.6,520.9,164.1,519.8,165.6L519.8,165.6z"/>
			</g>
		</g>
		<g>
			<g>
				<path class="st9" d="M547.9,138.1c-1.9,3.1,1.4,6.4,4.5,6.5c3.7,0.2,5.7-3.7,4.2-6.9c-1.8-3.7-6.5-4.2-9.7-2c-1.4,1-3,2.9-3,4.7
					c0,1.5,1.1,2.9,2.2,3.6c2.8,1.8,7.3,1.5,9-1.6c0.9-1.7-1.7-3.2-2.6-1.5c-0.8,1.5-3,1.5-4.3,0.9c-0.6-0.3-1.3-0.8-1.3-1.4
					c0.1-1.2,1.7-2.4,2.7-2.8c1.8-0.7,5.4,0.4,4.4,3c-0.7,2-4.4,0.4-3.6-1C551.5,137.9,548.9,136.4,547.9,138.1L547.9,138.1z"/>
			</g>
		</g>
		<g>
			<g>
				<path class="st9" d="M533.7,225.9c0.3-3.3,5.1-4.4,7.6-3c0.1-0.9,0.2-1.8,0.4-2.7c-1.4,0.6-2.7,1.1-4.1,1.7
					c-1.8,0.7-1,3.6,0.8,2.9c1.4-0.6,2.7-1.1,4.1-1.7c1.1-0.5,1.6-2,0.4-2.7c-4.6-2.8-11.6,0-12.1,5.6
					C530.5,227.8,533.5,227.8,533.7,225.9L533.7,225.9z"/>
			</g>
		</g>
		<g>
			<g>
				<path class="st9" d="M463.3,145.1c-0.7,3-0.3,5.9,1.1,8.6c0.4,0.7,1.4,1,2.1,0.5c2.7-1.7,7.7-6.1,4-9.4c-2-1.8-7.1-1.8-6.8,1.9
					c0.1,1.9,3.1,1.9,3,0c0-0.5-0.1,0-0.1,0c0.3-0.1,0.5-0.1,0.8-0.1c0.4,0,1.1,0.2,1.3,0.6c0.9,1.6-2.7,3.7-3.7,4.3
					c0.7,0.2,1.4,0.4,2.1,0.5c-1.1-2-1.4-4.1-0.8-6.3C466.6,144.1,463.7,143.3,463.3,145.1L463.3,145.1z"/>
			</g>
		</g>
		<g>
			<g>
				<path class="st9" d="M465.6,185.3c-4.8,0.7-3.8,7.5,1,6.9c2.4-0.3,3.5-3.5,4.2-5.5c1-2.8,1.1-5.7,0.6-8.6
					c-0.1-0.6-0.9-1.2-1.4-1.1c-4.2,0.5-7.6,5.2-4.7,9c1.1,1.5,3.7,0,2.6-1.5c-1.3-1.8-0.1-4.3,2.1-4.5c-0.5-0.4-1-0.7-1.4-1.1
					c0.4,2.2,0.2,4.4-0.5,6.6c-0.3,0.9-0.7,2.1-1.3,2.9c-1.2,1.4-1.4-0.1-0.3-0.2C468.3,188,467.5,185.1,465.6,185.3L465.6,185.3z"
					/>
			</g>
		</g>
		<g>
			<g>
				<path class="st9" d="M449.6,168.9c3.4-2,4.8-6.1,3.1-9.7c-0.4-0.9-1.7-0.9-2.4-0.3c-2,2-3.1,4.5-3,7.3c0,1.9,3,1.9,3,0
					c0-2,0.7-3.8,2.2-5.2c-0.8-0.1-1.6-0.2-2.4-0.3c1,2.1-0.1,4.5-2,5.6C446.4,167.3,447.9,169.9,449.6,168.9L449.6,168.9z"/>
			</g>
		</g>
		<g>
			<g>
				<path class="st9" d="M480.4,220.9c2.4,0.1,4.7-0.7,6.3-2.6c-0.8-0.6-1.6-1.2-2.4-1.8c-1.2,2-1.6,4.2-1,6.4
					c0.3,1,1.4,1.3,2.2,0.9c1.5-0.8,3.1-1.6,4.6-2.4c1.7-0.9,0.2-3.5-1.5-2.6c-1.5,0.8-3.1,1.6-4.6,2.4c0.7,0.3,1.5,0.6,2.2,0.9
					c-0.4-1.5-0.2-2.8,0.7-4.1c0.9-1.4-1.2-3.1-2.4-1.8c-1.1,1.3-2.5,1.8-4.2,1.7C478.5,217.7,478.5,220.7,480.4,220.9L480.4,220.9z
					"/>
			</g>
		</g>
		<g>
			<g>
				<path class="st9" d="M464.9,209.1c0,0.3-0.2,0.5-0.5,0.7c-0.2,0.1-0.2,0.1,0,0c0,0-0.1,0-0.1,0c0.2,0,0.2,0,0,0
					c0.1,0.1,0.4,0,0.2,0.1c-0.1-0.1-0.1-0.1,0,0c-0.1-0.1-0.2-0.3-0.2-0.5c0.5-0.5,1-1,1.5-1.5c-0.3,0-0.5-0.2-0.7-0.4
					c-0.2-0.2-0.1-0.3-0.2-0.5c0.1,0.1,0,0,0-0.1c-0.2,0.2-0.4,0.4-0.5,0.5c0.6-0.3,1.4-0.4,2,0c0.6,0.5,1.5,0.6,2.1,0
					c0.5-0.5,0.6-1.6,0-2.1c-1-0.8-2.1-1.2-3.4-1.2c-1.3,0.1-2.7,0.6-3.1,2c-0.6,2.4,1.5,4.6,3.8,4.7c0.8,0,1.6-0.7,1.5-1.5
					c-0.1-1.5-1.3-2.4-2.7-2.6c-1.4-0.1-2.7,0.7-2.7,2.2C461.9,211.1,464.9,211.1,464.9,209.1L464.9,209.1z"/>
			</g>
		</g>
		<g>
			<g>
				<path class="st9" d="M203.5,152.1c2.8,2,7.6-0.5,7.4-4.1c-0.3-4-5.6-4.7-8.4-2.9c-3.8,2.5-1.9,7.5,1.5,9.2
					c4.2,2.1,8.9-0.8,10.6-4.8c0.3-0.7-0.2-1.3-0.7-1.7c-2.9-2.2-7.8-1.2-9.2,2.2c-0.7,1.8,1.8,3.3,2.6,1.5c0.9-2,3.4-2.4,5.1-1.2
					c-0.2-0.6-0.5-1.1-0.7-1.7c-0.8,2-2.8,3.4-5,3.3c-1.6-0.1-4.2-2-3.1-3.9c0.6-1,2.9-1.5,3.9-0.6c1.4,1.2-1.3,2.8-2.5,1.9
					C203.4,148.4,201.9,151,203.5,152.1L203.5,152.1z"/>
			</g>
		</g>
		<g>
			<g>
				<path class="st9" d="M287.3,140.4c2.2,0.6,4.4,0.3,6.2-1c0.7-0.5,1.1-1.7,0.3-2.4c-2.2-2-4.8-3.9-7.9-3.9
					c-2.4,0-4.8,1.3-5.7,3.6c-2.2,5.1,5.1,7.7,7.9,3.6c1.1-1.6-1.5-3.1-2.6-1.5c-0.6,0.8-2.4,1-2.7-0.1c-0.3-1,1.2-2.1,2-2.4
					c2.5-0.8,5.2,1.3,6.9,2.9c0.1-0.8,0.2-1.6,0.3-2.4c-1.2,0.9-2.5,1.1-3.9,0.7C286.2,136.9,285.4,139.8,287.3,140.4L287.3,140.4z"
					/>
			</g>
		</g>
		<g>
			<g>
				<path class="st9" d="M288.8,169.3c2.2,2.2,6.3,1.6,8-0.9c1.7-2.5-0.1-5.4-2.9-5.8c-2.4-0.4-5.9,0.9-5.7,3.8
					c0.1,1.7,2.4,2.9,3.8,3.4c1.9,0.7,4,0.8,5.9,0.2c1.1-0.4,1.6-2.2,0.4-2.7c-2.6-1.2-5.3-1.5-8.1-1.1c-1.9,0.3-1.1,3.2,0.8,2.9
					c2-0.3,4,0,5.8,0.8c0.1-0.9,0.2-1.8,0.4-2.7c-2.3,0.7-4.7,0.1-6.3-1.8c0.1,0.4,0.3,0.7,0.4,1.1c0-1.1,2.7-1.3,3.2-0.4
					c0.8,1.4-2.6,2.1-3.5,1.2C289.6,165.8,287.5,168,288.8,169.3L288.8,169.3z"/>
			</g>
		</g>
		<g>
			<g>
				<path class="st9" d="M277.8,197.7c-0.3-0.5,1.1-1.1,1.7-1c1.4,0.2,0.8,1.8,0.1,2.5c-1,1-2.6,1.3-3.8,0.4
					c-1.2-0.8,0.2-1.7,0.7-1.1c1.2,1.5,3.3-0.6,2.1-2.1c-2.2-2.7-7.2-0.1-6.3,3.3c1,3.9,6.5,4.2,9.1,1.8c2.5-2.3,2.6-7.1-1.4-7.8
					c-2.9-0.5-6.9,2.3-4.9,5.4C276.2,200.9,278.8,199.4,277.8,197.7L277.8,197.7z"/>
			</g>
		</g>
		<g>
			<g>
				<path class="st9" d="M262.8,164.9c1.7,0.2,2.8,2.9,1.1,3.9c-1.9,1.1-4.3-2.1-2.5-3.5c-0.7,0-1.4,0-2.1,0c0.7,0.6,1,1.3,1.1,2.3
					c0,1.9,3,1.9,3,0c0-1.7-0.7-3.2-1.9-4.4c-0.6-0.6-1.5-0.5-2.1,0c-4.3,3.5,0.8,10.4,5.6,8.5c4.4-1.8,3.5-9-1.2-9.7
					C261.7,161.7,260.9,164.6,262.8,164.9L262.8,164.9z"/>
			</g>
		</g>
		<g>
			<g>
				<path class="st9" d="M236.5,218.9c-0.1,0.3,1.6,0.1,0.4,0.9c-1.3,0.9-3-0.3-3.7-1.2c-1.6-2.2-1.8-5.2-3.4-7.5
					c-0.3,0.7-0.6,1.5-0.9,2.2c1.7-0.2,4.1,1.2,3.8,3.1c-0.3,1.9,2.6,2.7,2.9,0.8c0.6-4.4-3.4-7.4-7.5-6.8c-0.9,0.1-1.4,1.5-0.9,2.2
					c1.9,2.8,1.9,6.7,4.7,9c2,1.7,5.1,2.1,7.2,0.3c4.5-3.9-3.8-8.8-5.5-3.8C233,219.9,235.9,220.7,236.5,218.9L236.5,218.9z"/>
			</g>
		</g>
		<g>
			<g>
				<path class="st9" d="M205.7,207.9c0.3,0,0.1-0.2,0.2,0.1c0,0.1,0,0.4,0,0.3c0.7,1-1.1-1,0.1,0c-0.2-0.2-0.6-0.2-0.8-0.6
					c-0.2-0.5-0.1-0.8,0.3-1.2c-0.4,0.1-0.7,0.3-1.1,0.4c0.4,0,1,0.2,1.1,0.7c0.1-0.4,0.3-0.7,0.4-1.1c-0.5,0.6-1.3,0.6-2,0.3
					c-0.4-0.2-1.3-0.7-0.9-1.3c0.7-0.8,3-0.2,2.9,0.9c-0.1,1.9,2.9,1.9,3,0c0.2-3.4-4.2-4.9-6.9-3.7c-1.5,0.7-2.5,2.3-2.1,3.9
					c0.4,1.6,1.8,2.7,3.3,3.2c1.6,0.5,3.4,0.3,4.6-0.9c1.7-1.8-0.6-4.4-2.5-4.8c-2.1-0.5-3.4,1.4-3.3,3.3c0.1,1.8,1.4,3.5,3.3,3.8
					c4.4,0.8,4.6-6.7,0.3-6.3C203.8,205.1,203.7,208.1,205.7,207.9L205.7,207.9z"/>
			</g>
		</g>
		<g>
			<g>
				<path class="st9" d="M224.5,185.3c-0.5-1.5-0.1-2.8,1-3.9c-0.6,0.1-1.2,0.2-1.8,0.2c1.6,0.7,2.8,2.4,2.1,4.2
					c-0.6,1.8-3,2.3-4.7,2c-1.6-0.4-3.3-2-2.3-3.8c0.7-1.3,3.7-1.3,3.5,0.5c-0.1,1.9,2.9,1.9,3,0c0.3-3.6-4.5-5.5-7.4-3.9
					c-3.4,2-2.9,7.1,0.2,9.1c3,1.9,7.7,1.5,9.8-1.5c2.2-3.2,0.7-7.6-2.7-9.2c-0.6-0.3-1.3-0.3-1.8,0.2c-1.8,1.8-2.5,4.3-1.8,6.8
					C222.2,187.9,225.1,187.1,224.5,185.3L224.5,185.3z"/>
			</g>
		</g>
		<g>
			<g>
				<path class="st9" d="M227.4,161.9c-0.6-1.8-0.2-3.5,1-5.1c-0.8,0.1-1.6,0.2-2.4,0.3c0.5,0.4,1.6,1.1,1.6,1.9
					c0.1-0.2,0.2-0.2,0.1-0.1c0,0-0.1,0-0.1,0.1c-0.1,0-0.2,0.1-0.3,0.1c-0.3,0.1-0.1,0.3,0.4,0.7c-0.2-1.9-3.2-1.9-3,0
					c0.3,2.3,2.9,2.9,4.7,1.7c2.6-1.8,0.5-4.9-1.2-6.3c-0.8-0.7-1.7-0.5-2.4,0.3c-1.6,2.1-2,4.9-1.3,7.4
					C225.1,164.6,228,163.8,227.4,161.9L227.4,161.9z"/>
			</g>
		</g>
		<g>
			<g>
				<path class="st9" d="M192.2,188c2.5,1.3,5.4,0.6,7.4-1.2c1.9-1.8,2.7-4.6,1.2-6.8c-0.4-0.5-1-0.9-1.7-0.7c-3,1-4.7,4.3-3,7.1
					c1,1.7,3.6,0.2,2.6-1.5c-0.6-1.1,0.1-2.4,1.2-2.7c-0.6-0.2-1.1-0.5-1.7-0.7c1.7,2.4-2.3,5.1-4.4,4
					C192,184.5,190.5,187.1,192.2,188L192.2,188z"/>
			</g>
		</g>
		<g>
			<g>
				<path class="st9" d="M240.9,109.1c2.4-1.3,2.9-4.3,1.1-6.3c-0.4-0.5-1.3-0.6-1.8-0.2c-3.8,2.4-5.4,7.3-2.9,11.2
					c0.4,0.7,1.3,0.9,2.1,0.5c2.4-1.4,4.2-3.4,5.2-6c0.7-1.8-2.2-2.6-2.9-0.8c-0.7,1.9-2.1,3.2-3.8,4.2c0.7,0.2,1.4,0.4,2.1,0.5
					c-1.6-2.5-0.6-5.6,1.9-7.1c-0.6-0.1-1.2-0.2-1.8-0.2c0.6,0.6,0.2,1.3-0.4,1.6C237.7,107.4,239.2,110,240.9,109.1L240.9,109.1z"
					/>
			</g>
		</g>
		<g>
			<g>
				<path class="st9" d="M193.8,122.2c2.4,0.8,5.1,0.2,6.9-1.5c0.5-0.4,0.6-1.3,0.2-1.8c-2-2.9-7.8-1.8-7.6,2.1
					c0,0.7,0.5,1.2,1.1,1.4c3.5,1.1,7.6-2.9,5.5-6.3c-1-1.7-3.6-0.1-2.6,1.5c0.7,1.2-1.1,2.2-2.1,1.9c0.4,0.5,0.7,1,1.1,1.4
					c0-0.6,1.6-1.2,2.1-0.6c0.1-0.6,0.2-1.2,0.2-1.8c-1.1,1-2.6,1.2-4,0.7C192.8,118.7,192,121.6,193.8,122.2L193.8,122.2z"/>
			</g>
		</g>
		<g>
			<g>
				<path class="st9" d="M258.8,136c2.5,4,9.6-0.1,6.7-4.2c-1.4-1.9-4.2-2.5-6.4-1.8c-2.7,0.9-4.3,3.6-4.7,6.3
					c-0.1,0.9,0.2,1.5,1,1.8c2.2,0.9,4.9,0,6.1-2.2c0.9-1.7-1.7-3.2-2.6-1.5c-0.6,1.1-1.6,1.2-2.7,0.8c0.3,0.6,0.7,1.2,1,1.8
					c0.3-2.2,1.7-5,4.4-4.3c3.2,0.7,0.2,2.5-0.3,1.7C260.3,132.8,257.7,134.3,258.8,136L258.8,136z"/>
			</g>
		</g>
		<g>
			<g>
				<path class="st9" d="M458.5,128.7c2.8,0.7,5.7,0.4,8.3-0.9c0.7-0.3,1-1.4,0.5-2.1c-1.7-2.2-4.5-3.2-7.2-2.5
					c-2.7,0.6-4.6,3.2-3.6,5.9c0.9,2.4,3.7,4.1,6.2,3.3c2.8-0.8,3.7-4.5,1-6.1c-1.6-1-3.2,1.6-1.5,2.6c0.4,0.3-0.1,0.5-0.3,0.6
					c-0.4,0.1-0.9,0-1.2-0.1c-0.8-0.3-1.7-1.3-1.4-2.2c0.7-2.1,4.5-1.2,5.4,0c0.2-0.7,0.4-1.4,0.5-2.1c-1.9,1-3.9,1.1-6,0.6
					C457.4,125.3,456.6,128.2,458.5,128.7L458.5,128.7z"/>
			</g>
		</g>
		<g>
			<g>
				<path class="st9" d="M195.2,122.2c2.8,0.7,5.6,0.3,8.1-1.2c0.7-0.4,0.9-1.3,0.5-2.1c-1.5-3.1-5.9-4.5-9-3
					c-1.7,0.8-1.5,3.1-0.6,4.4c1,1.5,2.8,2.1,4.6,1.8c1.9-0.4,1.1-3.3-0.8-2.9c-0.7,0.2-1.2-0.3-1.5-0.9c-0.1,0.1-0.1,0.2-0.2,0.3
					c0.2-0.1,0.4-0.1,0.5-0.1c0.4,0,0.7-0.1,1.1-0.1c1.4,0.1,2.7,0.8,3.3,2.1c0.2-0.7,0.4-1.4,0.5-2.1c-1.8,1.1-3.8,1.3-5.8,0.9
					C194.2,118.9,193.4,121.8,195.2,122.2L195.2,122.2z"/>
			</g>
		</g>
	</g>
	<g>
		<g>
			<path class="st1" d="M239.2,1194.3c-43.5,0-78.9-31.7-78.9-70.6s35.4-70.6,78.9-70.6s78.9,31.7,78.9,70.6
				S282.8,1194.3,239.2,1194.3z"/>
			<path class="st2" d="M239.2,1058.1c40.7,0,73.9,29.4,73.9,65.6c0,36.2-33.2,65.6-73.9,65.6s-73.9-29.4-73.9-65.6
				C165.4,1087.5,198.5,1058.1,239.2,1058.1 M239.2,1048.1c-46.3,0-83.9,33.9-83.9,75.6s37.6,75.6,83.9,75.6s83.9-33.9,83.9-75.6
				S285.6,1048.1,239.2,1048.1L239.2,1048.1z"/>
		</g>
		<g>
			<path class="st1" d="M509.6,1195.4c-43.5,0-78.9-31.7-78.9-70.6s35.4-70.6,78.9-70.6s78.9,31.7,78.9,70.6
				S553.1,1195.4,509.6,1195.4z"/>
			<path class="st2" d="M509.6,1059.2c40.7,0,73.9,29.4,73.9,65.6s-33.2,65.6-73.9,65.6s-73.9-29.4-73.9-65.6
				S468.8,1059.2,509.6,1059.2 M509.6,1049.2c-46.3,0-83.9,33.9-83.9,75.6s37.6,75.6,83.9,75.6s83.9-33.9,83.9-75.6
				S555.9,1049.2,509.6,1049.2L509.6,1049.2z"/>
		</g>
		<g class="st3">
			<linearGradient id="SVGID_10_" gradientUnits="userSpaceOnUse" x1="244.25" y1="1124.2485" x2="489.437" y2="1124.2485">
				<stop  offset="0" style="stop-color:#FFFFFF"/>
				<stop  offset="1" style="stop-color:#3B007F"/>
			</linearGradient>
			<path class="st16" d="M366.8,1234.2c-67.6,0-122.6-49.3-122.6-110c0-60.7,55-110,122.6-110c67.6,0,122.6,49.3,122.6,110
				C489.4,1184.9,434.4,1234.2,366.8,1234.2z"/>
			<path class="st5" d="M366.8,1019.3c64.8,0,117.6,47.1,117.6,105s-52.8,105-117.6,105s-117.6-47.1-117.6-105
				S302,1019.3,366.8,1019.3 M366.8,1009.3c-70.5,0-127.6,51.5-127.6,115c0,63.5,57.1,115,127.6,115s127.6-51.5,127.6-115
				C494.4,1060.7,437.3,1009.3,366.8,1009.3L366.8,1009.3z"/>
		</g>
		<g>
			<linearGradient id="SVGID_11_" gradientUnits="userSpaceOnUse" x1="143.6187" y1="1123.7236" x2="167.0869" y2="1123.7236">
				<stop  offset="0" style="stop-color:#FFFFFF"/>
				<stop  offset="1" style="stop-color:#3B007F"/>
			</linearGradient>
			<polygon class="st17" points="154.7,1130.4 151.8,1136.8 152.5,1129.7 147.9,1134.6 150.8,1128.3 145.3,1131.4 149.8,1126.6 
				144,1127.9 149.4,1124.9 143.6,1124.5 149.4,1123.3 143.7,1121.2 149.6,1121.7 144.5,1117.8 150.2,1120 146.4,1114.4 
				151.5,1118.4 149.7,1111.5 153.6,1117.3 154.2,1110.1 156,1117 158.9,1110.6 158.2,1117.7 162.8,1112.8 159.9,1119.1 
				165.4,1116.1 160.9,1120.8 166.7,1119.6 161.3,1122.5 167.1,1122.9 161.3,1124.1 167,1126.2 161.1,1125.8 166.2,1129.6 
				160.5,1127.5 164.3,1133.1 159.2,1129.1 161,1135.9 157.1,1130.2 156.5,1137.3 			"/>
			<polygon class="st5" points="151.6,1080.6 149.8,1102.7 137,1083.8 142.8,1105.3 124.2,1090.8 137.1,1109.7 114.4,1101.1 
				133.2,1115.4 108.7,1113.6 131.4,1122 107.5,1127.1 132,1128.8 111,1140.3 134.9,1135 118.8,1151.8 139.8,1140.2 130.3,1160.6 
				146.2,1143.7 144.1,1165.8 153.5,1145.3 159.1,1166.9 160.9,1144.8 173.7,1163.7 167.9,1142.2 186.5,1156.6 173.6,1137.8 
				196.3,1146.3 177.5,1132 202,1133.8 179.3,1125.4 203.2,1120.3 178.7,1118.7 199.7,1107.2 175.8,1112.4 191.9,1095.6 
				170.9,1107.3 180.4,1086.8 164.5,1103.7 166.6,1081.7 157.2,1102.2 151.6,1080.6 			"/>
		</g>
		<g>
			<linearGradient id="SVGID_12_" gradientUnits="userSpaceOnUse" x1="582.9077" y1="1124.7734" x2="606.3813" y2="1124.7734">
				<stop  offset="0" style="stop-color:#FFFFFF"/>
				<stop  offset="1" style="stop-color:#3B007F"/>
			</linearGradient>
			<polygon class="st18" points="594,1131.5 591.1,1137.9 591.8,1130.8 587.2,1135.7 590.1,1129.4 584.6,1132.4 589.1,1127.7 
				583.3,1128.9 588.7,1126 582.9,1125.6 588.7,1124.4 583,1122.3 588.9,1122.7 583.8,1118.9 589.5,1121 585.7,1115.4 590.8,1119.4 
				589,1112.6 592.9,1118.3 593.5,1111.2 595.3,1118.1 598.2,1111.7 597.5,1118.8 602.1,1113.9 599.2,1120.2 604.7,1117.1 
				600.2,1121.9 606,1120.6 600.6,1123.6 606.4,1124 600.6,1125.2 606.3,1127.3 600.4,1126.8 605.5,1130.7 599.8,1128.5 
				603.6,1134.1 598.5,1130.1 600.3,1137 596.4,1131.2 595.8,1138.4 			"/>
			<polygon class="st5" points="590.9,1081.6 589.1,1103.7 576.3,1084.8 582.1,1106.3 563.5,1091.9 576.4,1110.7 553.7,1102.2 
				572.5,1116.5 548,1114.7 570.7,1123.1 546.8,1128.2 571.3,1129.8 550.3,1141.3 574.2,1136.1 558.1,1152.9 579.1,1141.2 
				569.6,1161.7 585.5,1144.8 583.4,1166.8 592.8,1146.3 598.4,1167.9 600.2,1145.8 613,1164.7 607.2,1143.2 625.8,1157.7 
				612.9,1138.8 635.6,1147.4 616.8,1133.1 641.3,1134.9 618.6,1126.5 642.5,1121.4 618,1119.7 639,1108.2 615.1,1113.5 
				631.2,1096.7 610.2,1108.3 619.7,1087.9 603.8,1104.8 605.9,1082.7 596.5,1103.2 590.9,1081.6 			"/>
		</g>
		<polygon class="st8" points="474,1187.3 535.8,1286.5 410,1286.5 		"/>
		<polygon class="st8" points="264.3,1192.5 326.1,1286 200.2,1286 		"/>
		<g>
			<g>
				<path class="st9" d="M212.3,1090.2c-1,3.4,2.3,6.2,5.6,6c3.4-0.1,6.7-3.8,6.8-7.1c0.2-6-11.2-7.4-11.8-1.1
					c-0.7,6.8,10.8,8.5,10.2,1.2c-0.5-6.4-9.9-6-9.2,0.6c0.8,7.4,11.3,4.9,10.9-1.9c-0.5-7-12.5-6.9-14.3-0.7
					c-1,3.6,2.9,6.2,5.9,6.9c3.4,0.8,7.4,0.1,9.9-2.5c2.5-2.7,2.5-6.9,0-9.6c-2.3-2.5-6.2-3.1-9.3-1.8c-8.5,3.5-1.8,16.1,6.1,11.2
					c3.1-1.9,4.3-6.3,1.2-8.8c-2.6-2.1-7-2.1-9.1,0.6c-1.2,1.5,0.9,3.6,2.1,2.1c1.1-1.4,3.2-1.7,4.7-0.7c2.5,1.6,0.4,4.3-1.9,4.8
					c-2.2,0.4-4.2-1.3-4.1-3.5c0-2.4,2.4-3.5,4.6-3.4c5.6,0.2,6,7.1,0.9,8.6c-1.6,0.5-3.3,0.4-4.8,0c-1.5-0.5-3.9-1.6-2.7-3.8
					c0.4-0.7,1.5-1.1,2.2-1.4c1.7-0.5,4.1-0.5,5.2,1c1.2,1.6,0.1,4.2-1.9,4.6c-1.7,0.3-3.3-1.7-2.3-3.3c0.9-1.5,2.7-0.3,3,1
					c0.6,2.6-2.8,2.4-3.8,0.6c-1-1.8,0.5-3.1,2.4-2.9c1.8,0.2,3.4,1.3,2.7,3.1c-0.4,1-1.1,2.1-2.1,2.7c-1.2,0.7-4.8,0.7-4.1-1.7
					C215.8,1089.2,212.9,1088.4,212.3,1090.2L212.3,1090.2z"/>
			</g>
		</g>
		<g>
			<g>
				<path class="st9" d="M528.6,1078.8c0.1,5.8,8.3,7.3,11.4,2.9c3.8-5.4-1.6-10.8-7-11.3c-2.7-0.2-6.1,0.6-7.2,3.4
					c-0.9,2.1-0.2,4.7,1.5,6.2c4,3.5,12.3-1.6,8.8-6.5c-1.5-2.1-5.2-2.1-6.3,0.4c-1.2,2.8,1.8,5,4.3,4.6c1.9-0.3,1.1-3.2-0.8-2.9
					c-1.4,0.2-0.4-1.4,0.4-0.2c0.3,0.5-0.3,1.5-0.6,1.8c-1,1.1-2.9,1.5-4,0.3c-0.7-0.7-0.9-1.9-0.4-2.8c0.9-1.5,3.4-1.5,4.9-1.3
					c2.6,0.5,5.7,2.6,4.5,5.6c-1,2.7-6.3,3.1-6.4-0.4C531.5,1076.9,528.5,1076.9,528.6,1078.8L528.6,1078.8z"/>
			</g>
		</g>
		<g>
			<g>
				<path class="st9" d="M538.4,1121.2c2.6,2.7,6.5,4.8,10.4,3.9c3-0.7,6-3.5,5.6-6.8c-0.3-2.8-3.1-4.3-5.7-4.3
					c-1.2,0-2.5,0.4-3.4,1.2c-0.4,0.4-0.8,0.9-1,1.5c-0.2,0.4-0.1,0.9-0.3,1.2c-0.1,0.1-2,1.9-2,0.9c0.1,1.9,3.1,1.9,3,0
					c-0.1-2.2-3-3.3-4.6-1.7c-2.2,2.1,1,4.6,3.2,4.5c1.2-0.1,2.3-0.6,2.9-1.7c0.4-0.8,0.3-1.9,1-2.5c0.6-0.5,1.7-0.4,2.5-0.2
					c3,1.1,0.4,4.3-1.7,4.9c-2.9,0.8-5.8-1-7.8-3C539.2,1117.7,537.1,1119.8,538.4,1121.2L538.4,1121.2z"/>
			</g>
		</g>
		<g>
			<g>
				<path class="st9" d="M510.2,1151.9c-1.8-3.3-6.5-4.2-9.5-2.2c-0.6,0.4-0.9,1-0.7,1.7c0.7,2.3,1.5,4.8,3.6,6.3
					c1.9,1.4,4.4,1.4,6.4,0.1c1.6-1.1,2.5-3.3,1.1-5c-1.4-1.6-4.2-1.5-5.5,0.1c-1.2,1.5,0.9,3.6,2.1,2.1c0.3-0.4,1.3-0.7,0.8,0
					c-0.4,0.6-1.8,0.8-2.4,0.6c-2-0.6-2.7-3.3-3.2-5c-0.2,0.6-0.5,1.1-0.7,1.7c1.7-1.1,4.4-0.8,5.4,1.1
					C508.6,1155.1,511.2,1153.6,510.2,1151.9L510.2,1151.9z"/>
			</g>
		</g>
		<g>
			<g>
				<path class="st9" d="M507.8,1102.1c3.3-0.2,4.8-4.4,1.9-6.3c-0.4-0.3-1.1-0.3-1.5,0c-3.2,1.8-4.4,5.4-2.8,8.7
					c0.2,0.4,0.8,0.8,1.3,0.7c5.1-0.4,9.8-4.4,9.5-9.8c0-0.6-0.4-1.3-1.1-1.4c-5.3-1.1-11.4,5.8-6.6,10.2c3.7,3.4,11.5,0.6,11.3-4.7
					c-0.1-1.9-3.1-1.9-3,0c0.1,2.5-3.7,3.9-5.7,2.9c-3.4-1.7,0.5-6,3.2-5.4c-0.4-0.5-0.7-1-1.1-1.4c0.2,3.7-3,6.5-6.5,6.8
					c0.4,0.2,0.9,0.5,1.3,0.7c-0.9-1.8,0-3.7,1.7-4.6c-0.5,0-1,0-1.5,0c0.2,0.4,0.1,0.6-0.4,0.8
					C505.9,1099.2,505.9,1102.2,507.8,1102.1L507.8,1102.1z"/>
			</g>
		</g>
		<g>
			<g>
				<path class="st9" d="M542.6,1161.6c5-1.9,3.1-9.3-2.2-8.6c-2.3,0.3-4.6,2.3-4.8,4.7c-0.1,2.6,1.9,4.6,4.3,5.4
					c2.7,0.8,5.5-0.1,7.3-2.3c1.6-1.9,2.4-4.7,0.1-6.2c-3.4-2.2-9.5,0-9.3,4.4c0.1,1.9,3.1,1.9,3,0c-0.1-1.6,1.8-2.3,3.2-2.3
					c0.6,0,1.5,0.1,1.6,0.6c0.2,1.2-1.9,2.6-2.8,2.9c-1.9,0.6-5.9-1.3-3.7-3.6c2.2-2.2,4.7,1.2,2.6,2
					C540,1159.4,540.8,1162.3,542.6,1161.6L542.6,1161.6z"/>
			</g>
		</g>
		<g>
			<g>
				<path class="st9" d="M488,1072.3c1.5-0.3,2.9-0.5,4.4-0.8c-0.6-0.5-1.3-1-1.9-1.4c0,0,0.2-0.2,0.2-0.2c-0.2,0-0.5,0.1-0.8,0.1
					c-0.1,0-0.3-0.1-0.5-0.1c-0.2,0,0.1,0,0,0.3c-0.6,0.3-1.2,0.7-1.8,1c1,0.4,1.3,1.3,1.2,2.2c0.6-0.5,1.3-1,1.9-1.4
					c-1.5-0.4-2.4-2.7-1-3.8c-0.6-0.1-1.2-0.2-1.8-0.2c1.4,1.6,2.2,3.5,2.5,5.6c0.2,1.9,3.2,1.9,3,0c-0.3-2.9-1.4-5.5-3.3-7.7
					c-0.4-0.5-1.3-0.6-1.8-0.2c-3.5,2.6-2.4,8,1.7,9.3c1,0.3,1.8-0.5,1.9-1.4c0.3-2.4-1.3-4.3-3.4-5.1c-0.7-0.3-1.7,0.3-1.8,1
					c-1.1,4.3,7,5.1,6.9,0.8c0-1-0.9-1.6-1.9-1.4c-1.5,0.3-2.9,0.5-4.4,0.8C485.3,1069.8,486.1,1072.7,488,1072.3L488,1072.3z"/>
			</g>
		</g>
		<g>
			<g>
				<path class="st9" d="M488.7,1073.4c4.3,0.8,9.6-3.2,7.8-8c-0.3-0.8-1-1.3-1.8-1c-3,0.7-5.1,3.8-4,6.8c0.2,0.6,0.8,1.1,1.4,1.1
					c2.6-0.2,5.1-1.5,6.3-3.9c0.3-0.6,0.3-1.4-0.2-1.8c-3-2.6-5.7,3.6-1.7,3.9c1.9,0.1,1.9-2.9,0-3c1.4,1.1,1.3,1.5-0.4,1.2
					c-0.1-0.6-0.2-1.2-0.2-1.8c-0.7,1.5-2.1,2.3-3.7,2.4c0.5,0.4,1,0.7,1.4,1.1c-0.6-1.5,0.4-2.8,1.9-3.1c-0.6-0.3-1.2-0.7-1.8-1
					c0.9,2.4-1.7,4.7-4.1,4.3C487.6,1070.2,486.8,1073.1,488.7,1073.4L488.7,1073.4z"/>
			</g>
		</g>
		<g>
			<g>
				<path class="st9" d="M503.7,1179.6c-1.3-1.6,0.4-4.3,2.4-4c1.7,0.3,2.5,2.8,0.9,3.7c0.4-0.1,0.8-0.1,1.2-0.2
					c-1.8-0.8-2.3-3.2-0.9-4.5c-0.7,0-1.4,0-2.1,0c2.1,1.7,1.9,4.7-0.5,6.1c-1.7,1-0.2,3.6,1.5,2.6c3.9-2.2,4.6-7.9,1.1-10.8
					c-0.6-0.5-1.5-0.6-2.1,0c-2.5,2.4-2.2,6.5,0.5,8.6c1.5,1.2,2.9,1.2,4.2-0.3c1-1.2,1.2-2.9,0.8-4.4c-0.9-3.2-4.5-4.9-7.5-3.2
					c-3,1.7-3.8,5.8-1.6,8.4C502.8,1183.2,504.9,1181,503.7,1179.6L503.7,1179.6z"/>
			</g>
		</g>
		<g>
			<g>
				<path class="st9" d="M519.8,1123.4c-1.5,2.1,0.1,5.1,2.5,5.4c-0.4-0.5-0.7-1-1.1-1.4c-0.1,0.9-2.8,1.2-3,0.3
					c-0.3-1,2.3-1.7,2.9-0.9c0.8,1.1,2.9,0.9,2.8-0.8c-0.2-3.6-6.3-2.6-5.3,0.8c0.6,1.8,3.5,1.1,2.9-0.8c0,0.3-0.1,0.6-0.3,0.8
					c-0.1,0,0,0,0.2,0c-0.2-0.1-0.4-0.3-0.4-0.7c0.9-0.3,1.9-0.5,2.8-0.8c-1.3-1.8-3.6-2.2-5.6-1.4c-1.9,0.8-3.4,2.6-2.7,4.8
					c1.4,4.1,8.6,3,8.9-1.3c0-0.6-0.5-1.4-1.1-1.4c-0.6-0.1-1.1-0.5-0.7-1C523.5,1123.3,520.9,1121.8,519.8,1123.4L519.8,1123.4z"/>
			</g>
		</g>
		<g>
			<g>
				<path class="st9" d="M547.9,1095.8c-1.9,3.1,1.4,6.4,4.5,6.5c3.7,0.2,5.7-3.7,4.2-6.9c-1.8-3.7-6.5-4.2-9.7-2
					c-1.4,1-3,2.9-3,4.7c0,1.5,1.1,2.9,2.2,3.6c2.8,1.8,7.3,1.5,9-1.6c0.9-1.7-1.7-3.2-2.6-1.5c-0.8,1.5-3,1.5-4.3,0.9
					c-0.6-0.3-1.3-0.8-1.3-1.4c0.1-1.2,1.7-2.4,2.7-2.8c1.8-0.7,5.4,0.4,4.4,3c-0.7,2-4.4,0.4-3.6-1
					C551.5,1095.7,548.9,1094.2,547.9,1095.8L547.9,1095.8z"/>
			</g>
		</g>
		<g>
			<g>
				<path class="st9" d="M533.7,1183.7c0.3-3.3,5.1-4.4,7.6-3c0.1-0.9,0.2-1.8,0.4-2.7c-1.4,0.6-2.7,1.1-4.1,1.7
					c-1.8,0.7-1,3.6,0.8,2.9c1.4-0.6,2.7-1.1,4.1-1.7c1.1-0.5,1.6-2,0.4-2.7c-4.6-2.8-11.6,0-12.1,5.6
					C530.5,1185.6,533.5,1185.6,533.7,1183.7L533.7,1183.7z"/>
			</g>
		</g>
		<g>
			<g>
				<path class="st9" d="M463.3,1102.9c-0.7,3-0.3,5.9,1.1,8.6c0.4,0.7,1.4,1,2.1,0.5c2.7-1.7,7.7-6.1,4-9.4c-2-1.8-7.1-1.8-6.8,1.9
					c0.1,1.9,3.1,1.9,3,0c0-0.5-0.1,0-0.1,0c0.3-0.1,0.5-0.1,0.8-0.1c0.4,0,1.1,0.2,1.3,0.6c0.9,1.6-2.7,3.7-3.7,4.3
					c0.7,0.2,1.4,0.4,2.1,0.5c-1.1-2-1.4-4.1-0.8-6.3C466.6,1101.8,463.7,1101,463.3,1102.9L463.3,1102.9z"/>
			</g>
		</g>
		<g>
			<g>
				<path class="st9" d="M465.6,1143.1c-4.8,0.7-3.8,7.5,1,6.9c2.4-0.3,3.5-3.5,4.2-5.5c1-2.8,1.1-5.7,0.6-8.6
					c-0.1-0.6-0.9-1.2-1.4-1.1c-4.2,0.5-7.6,5.2-4.7,9c1.1,1.5,3.7,0,2.6-1.5c-1.3-1.8-0.1-4.3,2.1-4.5c-0.5-0.4-1-0.7-1.4-1.1
					c0.4,2.2,0.2,4.4-0.5,6.6c-0.3,0.9-0.7,2.1-1.3,2.9c-1.2,1.4-1.4-0.1-0.3-0.2C468.3,1145.7,467.5,1142.8,465.6,1143.1
					L465.6,1143.1z"/>
			</g>
		</g>
		<g>
			<g>
				<path class="st9" d="M449.6,1126.7c3.4-2,4.8-6.1,3.1-9.7c-0.4-0.9-1.7-0.9-2.4-0.3c-2,2-3.1,4.5-3,7.3c0,1.9,3,1.9,3,0
					c0-2,0.7-3.8,2.2-5.2c-0.8-0.1-1.6-0.2-2.4-0.3c1,2.1-0.1,4.5-2,5.6C446.4,1125.1,447.9,1127.7,449.6,1126.7L449.6,1126.7z"/>
			</g>
		</g>
		<g>
			<g>
				<path class="st9" d="M480.4,1178.6c2.4,0.1,4.7-0.7,6.3-2.6c-0.8-0.6-1.6-1.2-2.4-1.8c-1.2,2-1.6,4.2-1,6.4
					c0.3,1,1.4,1.3,2.2,0.9c1.5-0.8,3.1-1.6,4.6-2.4c1.7-0.9,0.2-3.5-1.5-2.6c-1.5,0.8-3.1,1.6-4.6,2.4c0.7,0.3,1.5,0.6,2.2,0.9
					c-0.4-1.5-0.2-2.8,0.7-4.1c0.9-1.4-1.2-3.1-2.4-1.8c-1.1,1.3-2.5,1.8-4.2,1.7C478.5,1175.5,478.5,1178.5,480.4,1178.6
					L480.4,1178.6z"/>
			</g>
		</g>
		<g>
			<g>
				<path class="st9" d="M464.9,1166.9c0,0.3-0.2,0.5-0.5,0.7c-0.2,0.1-0.2,0.1,0,0c0,0-0.1,0-0.1,0c0.2,0,0.2,0,0,0
					c0.1,0.1,0.4,0,0.2,0.1c-0.1-0.1-0.1-0.1,0,0c-0.1-0.1-0.2-0.3-0.2-0.5c0.5-0.5,1-1,1.5-1.5c-0.3,0-0.5-0.2-0.7-0.4
					c-0.2-0.2-0.1-0.3-0.2-0.5c0.1,0.1,0,0,0-0.1c-0.2,0.2-0.4,0.4-0.5,0.5c0.6-0.3,1.4-0.4,2,0c0.6,0.5,1.5,0.6,2.1,0
					c0.5-0.5,0.6-1.6,0-2.1c-1-0.8-2.1-1.2-3.4-1.2c-1.3,0.1-2.7,0.6-3.1,2c-0.6,2.4,1.5,4.6,3.8,4.7c0.8,0,1.6-0.7,1.5-1.5
					c-0.1-1.5-1.3-2.4-2.7-2.6c-1.4-0.1-2.7,0.7-2.7,2.2C461.9,1168.8,464.9,1168.8,464.9,1166.9L464.9,1166.9z"/>
			</g>
		</g>
		<g>
			<g>
				<path class="st9" d="M203.5,1109.8c2.8,2,7.6-0.5,7.4-4.1c-0.3-4-5.6-4.7-8.4-2.9c-3.8,2.5-1.9,7.5,1.5,9.2
					c4.2,2.1,8.9-0.8,10.6-4.8c0.3-0.7-0.2-1.3-0.7-1.7c-2.9-2.2-7.8-1.2-9.2,2.2c-0.7,1.8,1.8,3.3,2.6,1.5c0.9-2,3.4-2.4,5.1-1.2
					c-0.2-0.6-0.5-1.1-0.7-1.7c-0.8,2-2.8,3.4-5,3.3c-1.6-0.1-4.2-2-3.1-3.9c0.6-1,2.9-1.5,3.9-0.6c1.4,1.2-1.3,2.8-2.5,1.9
					C203.4,1106.1,201.9,1108.7,203.5,1109.8L203.5,1109.8z"/>
			</g>
		</g>
		<g>
			<g>
				<path class="st9" d="M287.3,1098.1c2.2,0.6,4.4,0.3,6.2-1c0.7-0.5,1.1-1.7,0.3-2.4c-2.2-2-4.8-3.9-7.9-3.9
					c-2.4,0-4.8,1.3-5.7,3.6c-2.2,5.1,5.1,7.7,7.9,3.6c1.1-1.6-1.5-3.1-2.6-1.5c-0.6,0.8-2.4,1-2.7-0.1c-0.3-1,1.2-2.1,2-2.4
					c2.5-0.8,5.2,1.3,6.9,2.9c0.1-0.8,0.2-1.6,0.3-2.4c-1.2,0.9-2.5,1.1-3.9,0.7C286.2,1094.7,285.4,1097.6,287.3,1098.1
					L287.3,1098.1z"/>
			</g>
		</g>
		<g>
			<g>
				<path class="st9" d="M288.8,1127.1c2.2,2.2,6.3,1.6,8-0.9c1.7-2.5-0.1-5.4-2.9-5.8c-2.4-0.4-5.9,0.9-5.7,3.8
					c0.1,1.7,2.4,2.9,3.8,3.4c1.9,0.7,4,0.8,5.9,0.2c1.1-0.4,1.6-2.2,0.4-2.7c-2.6-1.2-5.3-1.5-8.1-1.1c-1.9,0.3-1.1,3.2,0.8,2.9
					c2-0.3,4,0,5.8,0.8c0.1-0.9,0.2-1.8,0.4-2.7c-2.3,0.7-4.7,0.1-6.3-1.8c0.1,0.4,0.3,0.7,0.4,1.1c0-1.1,2.7-1.3,3.2-0.4
					c0.8,1.4-2.6,2.1-3.5,1.2C289.6,1123.6,287.5,1125.7,288.8,1127.1L288.8,1127.1z"/>
			</g>
		</g>
		<g>
			<g>
				<path class="st9" d="M277.8,1155.5c-0.3-0.5,1.1-1.1,1.7-1c1.4,0.2,0.8,1.8,0.1,2.5c-1,1-2.6,1.3-3.8,0.4
					c-1.2-0.8,0.2-1.7,0.7-1.1c1.2,1.5,3.3-0.6,2.1-2.1c-2.2-2.7-7.2-0.1-6.3,3.3c1,3.9,6.5,4.2,9.1,1.8c2.5-2.3,2.6-7.1-1.4-7.8
					c-2.9-0.5-6.9,2.3-4.9,5.4C276.2,1158.6,278.8,1157.1,277.8,1155.5L277.8,1155.5z"/>
			</g>
		</g>
		<g>
			<g>
				<path class="st9" d="M262.8,1122.7c1.7,0.2,2.8,2.9,1.1,3.9c-1.9,1.1-4.3-2.1-2.5-3.5c-0.7,0-1.4,0-2.1,0c0.7,0.6,1,1.3,1.1,2.3
					c0,1.9,3,1.9,3,0c0-1.7-0.7-3.2-1.9-4.4c-0.6-0.6-1.5-0.5-2.1,0c-4.3,3.5,0.8,10.4,5.6,8.5c4.4-1.8,3.5-9-1.2-9.7
					C261.7,1119.5,260.9,1122.4,262.8,1122.7L262.8,1122.7z"/>
			</g>
		</g>
		<g>
			<g>
				<path class="st9" d="M236.5,1176.6c-0.1,0.3,1.6,0.1,0.4,0.9c-1.3,0.9-3-0.3-3.7-1.2c-1.6-2.2-1.8-5.2-3.4-7.5
					c-0.3,0.7-0.6,1.5-0.9,2.2c1.7-0.2,4.1,1.2,3.8,3.1c-0.3,1.9,2.6,2.7,2.9,0.8c0.6-4.4-3.4-7.4-7.5-6.8c-0.9,0.1-1.4,1.5-0.9,2.2
					c1.9,2.8,1.9,6.7,4.7,9c2,1.7,5.1,2.1,7.2,0.3c4.5-3.9-3.8-8.8-5.5-3.8C233,1177.6,235.9,1178.4,236.5,1176.6L236.5,1176.6z"/>
			</g>
		</g>
		<g>
			<g>
				<path class="st9" d="M205.7,1165.7c0.3,0,0.1-0.2,0.2,0.1c0,0.1,0,0.4,0,0.3c0.7,1-1.1-1,0.1,0c-0.2-0.2-0.6-0.2-0.8-0.6
					c-0.2-0.5-0.1-0.8,0.3-1.2c-0.4,0.1-0.7,0.3-1.1,0.4c0.4,0,1,0.2,1.1,0.7c0.1-0.4,0.3-0.7,0.4-1.1c-0.5,0.6-1.3,0.6-2,0.3
					c-0.4-0.2-1.3-0.7-0.9-1.3c0.7-0.8,3-0.2,2.9,0.9c-0.1,1.9,2.9,1.9,3,0c0.2-3.4-4.2-4.9-6.9-3.7c-1.5,0.7-2.5,2.3-2.1,3.9
					c0.4,1.6,1.8,2.7,3.3,3.2c1.6,0.5,3.4,0.3,4.6-0.9c1.7-1.8-0.6-4.4-2.5-4.8c-2.1-0.5-3.4,1.4-3.3,3.3c0.1,1.8,1.4,3.5,3.3,3.8
					c4.4,0.8,4.6-6.7,0.3-6.3C203.8,1162.9,203.7,1165.9,205.7,1165.7L205.7,1165.7z"/>
			</g>
		</g>
		<g>
			<g>
				<path class="st9" d="M224.5,1143c-0.5-1.5-0.1-2.8,1-3.9c-0.6,0.1-1.2,0.2-1.8,0.2c1.6,0.7,2.8,2.4,2.1,4.2
					c-0.6,1.8-3,2.3-4.7,2c-1.6-0.4-3.3-2-2.3-3.8c0.7-1.3,3.7-1.3,3.5,0.5c-0.1,1.9,2.9,1.9,3,0c0.3-3.6-4.5-5.5-7.4-3.9
					c-3.4,2-2.9,7.1,0.2,9.1c3,1.9,7.7,1.5,9.8-1.5c2.2-3.2,0.7-7.6-2.7-9.2c-0.6-0.3-1.3-0.3-1.8,0.2c-1.8,1.8-2.5,4.3-1.8,6.8
					C222.2,1145.7,225.1,1144.9,224.5,1143L224.5,1143z"/>
			</g>
		</g>
		<g>
			<g>
				<path class="st9" d="M227.4,1119.7c-0.6-1.8-0.2-3.5,1-5.1c-0.8,0.1-1.6,0.2-2.4,0.3c0.5,0.4,1.6,1.1,1.6,1.9
					c0.1-0.2,0.2-0.2,0.1-0.1c0,0-0.1,0-0.1,0.1c-0.1,0-0.2,0.1-0.3,0.1c-0.3,0.1-0.1,0.3,0.4,0.7c-0.2-1.9-3.2-1.9-3,0
					c0.3,2.3,2.9,2.9,4.7,1.7c2.6-1.8,0.5-4.9-1.2-6.3c-0.8-0.7-1.7-0.5-2.4,0.3c-1.6,2.1-2,4.9-1.3,7.4
					C225.1,1122.3,228,1121.5,227.4,1119.7L227.4,1119.7z"/>
			</g>
		</g>
		<g>
			<g>
				<path class="st9" d="M192.2,1145.7c2.5,1.3,5.4,0.6,7.4-1.2c1.9-1.8,2.7-4.6,1.2-6.8c-0.4-0.5-1-0.9-1.7-0.7c-3,1-4.7,4.3-3,7.1
					c1,1.7,3.6,0.2,2.6-1.5c-0.6-1.1,0.1-2.4,1.2-2.7c-0.6-0.2-1.1-0.5-1.7-0.7c1.7,2.4-2.3,5.1-4.4,4
					C192,1142.2,190.5,1144.8,192.2,1145.7L192.2,1145.7z"/>
			</g>
		</g>
		<g>
			<g>
				<path class="st9" d="M240.9,1066.8c2.4-1.3,2.9-4.3,1.1-6.3c-0.4-0.5-1.3-0.6-1.8-0.2c-3.8,2.4-5.4,7.3-2.9,11.2
					c0.4,0.7,1.3,0.9,2.1,0.5c2.4-1.4,4.2-3.4,5.2-6c0.7-1.8-2.2-2.6-2.9-0.8c-0.7,1.9-2.1,3.2-3.8,4.2c0.7,0.2,1.4,0.4,2.1,0.5
					c-1.6-2.5-0.6-5.6,1.9-7.1c-0.6-0.1-1.2-0.2-1.8-0.2c0.6,0.6,0.2,1.3-0.4,1.6C237.7,1065.1,239.2,1067.7,240.9,1066.8
					L240.9,1066.8z"/>
			</g>
		</g>
		<g>
			<g>
				<path class="st9" d="M193.8,1079.9c2.4,0.8,5.1,0.2,6.9-1.5c0.5-0.4,0.6-1.3,0.2-1.8c-2-2.9-7.8-1.8-7.6,2.1
					c0,0.7,0.5,1.2,1.1,1.4c3.5,1.1,7.6-2.9,5.5-6.3c-1-1.7-3.6-0.1-2.6,1.5c0.7,1.2-1.1,2.2-2.1,1.9c0.4,0.5,0.7,1,1.1,1.4
					c0-0.6,1.6-1.2,2.1-0.6c0.1-0.6,0.2-1.2,0.2-1.8c-1.1,1-2.6,1.2-4,0.7C192.8,1076.4,192,1079.3,193.8,1079.9L193.8,1079.9z"/>
			</g>
		</g>
		<g>
			<g>
				<path class="st9" d="M258.8,1093.7c2.5,4,9.6-0.1,6.7-4.2c-1.4-1.9-4.2-2.5-6.4-1.8c-2.7,0.9-4.3,3.6-4.7,6.3
					c-0.1,0.9,0.2,1.5,1,1.8c2.2,0.9,4.9,0,6.1-2.2c0.9-1.7-1.7-3.2-2.6-1.5c-0.6,1.1-1.6,1.2-2.7,0.8c0.3,0.6,0.7,1.2,1,1.8
					c0.3-2.2,1.7-5,4.4-4.3c3.2,0.7,0.2,2.5-0.3,1.7C260.3,1090.6,257.7,1092.1,258.8,1093.7L258.8,1093.7z"/>
			</g>
		</g>
		<g>
			<g>
				<path class="st9" d="M458.5,1086.4c2.8,0.7,5.7,0.4,8.3-0.9c0.7-0.3,1-1.4,0.5-2.1c-1.7-2.2-4.5-3.2-7.2-2.5
					c-2.7,0.6-4.6,3.2-3.6,5.9c0.9,2.4,3.7,4.1,6.2,3.3c2.8-0.8,3.7-4.5,1-6.1c-1.6-1-3.2,1.6-1.5,2.6c0.4,0.3-0.1,0.5-0.3,0.6
					c-0.4,0.1-0.9,0-1.2-0.1c-0.8-0.3-1.7-1.3-1.4-2.2c0.7-2.1,4.5-1.2,5.4,0c0.2-0.7,0.4-1.4,0.5-2.1c-1.9,1-3.9,1.1-6,0.6
					C457.4,1083.1,456.6,1086,458.5,1086.4L458.5,1086.4z"/>
			</g>
		</g>
		<g>
			<g>
				<path class="st9" d="M195.2,1080c2.8,0.7,5.6,0.3,8.1-1.2c0.7-0.4,0.9-1.3,0.5-2.1c-1.5-3.1-5.9-4.5-9-3
					c-1.7,0.8-1.5,3.1-0.6,4.4c1,1.5,2.8,2.1,4.6,1.8c1.9-0.4,1.1-3.3-0.8-2.9c-0.7,0.2-1.2-0.3-1.5-0.9c-0.1,0.1-0.1,0.2-0.2,0.3
					c0.2-0.1,0.4-0.1,0.5-0.1c0.4,0,0.7-0.1,1.1-0.1c1.4,0.1,2.7,0.8,3.3,2.1c0.2-0.7,0.4-1.4,0.5-2.1c-1.8,1.1-3.8,1.3-5.8,0.9
					C194.2,1076.6,193.4,1079.5,195.2,1080L195.2,1080z"/>
			</g>
		</g>
	</g>
</g>
</svg>
